<svg version="1.1" xmlns="http://www.w3.org/2000/svg" xmlns:xlink="http://www.w3.org/1999/xlink" x="0px" y="0px"
	 viewBox="0 0 54 200" xml:space="preserve">
<path fill="none" stroke="#8D9989" stroke-width="1" stroke-miterlimit="10" d="M24.4,198.2c-2.2,0-17.6-0.5-20.3-1.7c-2.7-1.2-2.3-4.7-2.3-4.7
	S1.5,95.2,1.3,87c-0.2-8.2-0.1-9.9,2-17c2.1-7.1,11.6-11.7,12.7-13.5c1.2-1.8,1.5-15.6,1.5-15.6s0.7-26.7,0.7-27.3
	c0-0.6-0.7-1.3-0.7-1.3V7.7c0,0,0.5-0.9,0.5-1.4c0-0.5,0.2-2.8,0.9-3.2c0.7-0.5,4.9-0.9,4.9-0.9s0.8-0.1,2.8-0.1
	c2,0,3.1,0.1,3.1,0.1s4.2,0.4,4.9,0.9c0.7,0.5,0.9,2.8,0.9,3.2c0,0.5,0.5,1.4,0.5,1.4v4.6c0,0-0.7,0.7-0.7,1.3
	c0,0.6,0.7,27.3,0.7,27.3s0.3,13.8,1.5,15.6C38.6,58.3,48,62.9,50.2,70c2.1,7.1,2.2,8.9,2,17c-0.2,8.2-0.4,104.7-0.4,104.7
	s0.4,3.5-2.3,4.7c-2.7,1.2-17.3,1.7-19.6,1.7H24.4z"/>
</svg>