<?xml version="1.0" encoding="utf-8"?>
<!-- Generator: Adobe Illustrator 20.1.0, SVG Export Plug-In . SVG Version: 6.00 Build 0)  -->
<svg version="1.1" id="line_art" xmlns="http://www.w3.org/2000/svg" xmlns:xlink="http://www.w3.org/1999/xlink" x="0px" y="0px"
	 viewBox="0 0 470 490" enable-background="new 0 0 470 490" xml:space="preserve">
<path fill="none" stroke="#697C60" stroke-linecap="round" stroke-linejoin="round" stroke-miterlimit="10" d="M224.3,40.7
	c0-2.9-0.3-14.8-0.3-19s0-5.7,4.1-7.6c4.2-1.9,11.8-6.2,18.9-9.5c7.1-3.2,14.2,0.5,19.3,3.8C270.2,11,291,24.1,300,28.9
	c15.7,8.5,8.8,35-6.9,27c-12.5-6.4-7.2-20.5,2.3-15.9"/>
<path fill="none" stroke="#697C60" stroke-linecap="round" stroke-linejoin="round" stroke-miterlimit="10" d="M323.3,125.4
	c0-8.7,0-14.6,0-21.6s-1.8-8.8-4.8-10.5c-2.9-1.6-10.2-5.7-13.6-7.2c-10.5-4.9-13,9.4-5.1,12.8c7.2,3.1,9.5-5.2,3.3-7.8"/>
<path fill="none" stroke="#697C60" stroke-linecap="round" stroke-linejoin="round" stroke-miterlimit="10" d="M370.9,173.1
	c0-8.7,0-35.1,0-42.2c0-7.1-0.1-11.9-7-14.9c-3.6-1.6-11.5-6.5-14.8-8c-15.2-6.9-18.5,19.4-4.8,24.3c10,3.6,13-11,3.3-14.9"/>
<path fill="none" stroke="#697C60" stroke-linecap="round" stroke-linejoin="round" stroke-miterlimit="10" d="M91.9,169.3
	c0-3,0-19.8,0-33.4s3.3-15.1,9.2-18.1c5-2.6,40.7-17.9,47.1-20.8c20.1-9.3,25.3,24,9.8,29.5c-14.7,5.3-18.1-11.9-6.3-17
	c5.2-2.2,8.1,7,2.1,9.1"/>
<path fill="none" stroke="#697C60" stroke-linecap="round" stroke-linejoin="round" stroke-miterlimit="10" d="M112.6,181.6
	c-11.8,2.7-9.3,17.5,0,15.5c18.1-4,15.7-30.3-1.5-25.4c-10.2,2.9-43.8,13.9-51.9,16.5c-9.5,3-12.8,9.5-12.8,23.1s0,38.4,0,38.4"/>
<path fill="none" stroke="#697C60" stroke-linecap="round" stroke-linejoin="round" stroke-miterlimit="10" d="M349.4,198.1
	c0-11.5,0-32.5,0-38.4s0-11.7-6.5-14.5c-2.1-0.9-10.8-4.6-12.5-5.2c-18.3-6.7-17.2,19.5-3.3,23.9c11.5,3.6,13.4-10.8,2.3-14.2"/>
<path fill="none" stroke="#697C60" stroke-linecap="round" stroke-linejoin="round" stroke-miterlimit="10" d="M262.5,34.9
	c-2.4-1.4-4.1,2.5-0.2,4.5c3.9,2,6.9-5.2,1.5-8.3c-5.4-3.1-3-1.8-5.4-3.1c-2.4-1.3-5.3,0.9-5.4,3.5c0,2.6,0,48.8,0,48.8"/>
<path fill="none" stroke="#697C60" stroke-linecap="round" stroke-linejoin="round" stroke-miterlimit="10" d="M277.6,230.8
	c0,0,6-4.4,10.9-2.8s9.8,7.2,16,7.8c-4.3-3.8-3.6-6.7-9.7-10.3c6.2-0.9,6.9-2.5,11.7-6c-14.4,3-15.2-4.5-20.5-4.9
	c-6.4-0.5-8.4,2.6-8.4,2.6"/>
<path fill="none" stroke="#697C60" stroke-linecap="round" stroke-linejoin="round" stroke-miterlimit="10" d="M180.9,235.1
	c-9.1,4.7-10.8-1.3-17.1-1.8c-5.3-0.4-7,6.1-13.7,6.1c2.1-4.3,3.5-9.7,9.9-11.6c-3.9-3.3-8-4-15-5c8.9-0.5,11-8.8,17.9-5.9
	c6.7,2.8,9.1,6,15.6,2.4"/>
<path fill="none" stroke="#697C60" stroke-linecap="round" stroke-linejoin="round" stroke-miterlimit="10" d="M372.4,193.3
	c5.8,1.4,5,12.7-2.3,11.1c-13.2-2.9-10.5-24.3,3.7-20c15.6,4.6,21.4,6.3,27.7,8.6s10.2,10.9,10.2,19.2s0,54.6,0,54.6"/>
<path fill="none" stroke="#697C60" stroke-linecap="round" stroke-linejoin="round" stroke-miterlimit="10" d="M429.1,233.5
	c6.1,1.3,5.7,11.5-1.9,10.2c-10.8-1.7-11.3-20.1,3.3-17.2c8.3,1.7,21.9,4.5,29.6,6c7.6,1.4,8.3,11.5,8.3,19.8c0,8.3,0,81.5,0,93.8
	c0,12.2-5.2,23.1-17.7,25.8c-11.9,2.6-21.5,7.5-21.5,1"/>
<path fill="none" stroke="#697C60" stroke-linecap="round" stroke-linejoin="round" stroke-miterlimit="10" d="M29,249.1
	c-5.6,0.7-5.7,11,0.5,10.3c8.9-0.9,8.5-19.7-1.8-18.4c-6.6,0.8-11.4,2-17.5,3c-6.7,1-8.7,6.7-8.7,14.9c0,7.4,0,75.8,0,86.7
	s3.7,20.3,10.9,22.2c3.7,1,7.9,2.1,11.2,2.9c9.6,2.4,18.5,5.7,18.5,1"/>
<path fill="none" stroke="#697C60" stroke-linecap="round" stroke-linejoin="round" stroke-miterlimit="10" d="M380.5,235.5
	c3.4,0.3,2.3,5.5-1,5c-5.6-0.8-5-10,1.7-9c4.7,0.7,6.1,1.4,9.2,1.9c3.7,0.7,5.9,5.9,5.9,9.6c0,3,0,2.7,0,24.6"/>
<path fill="none" stroke="#697C60" stroke-linecap="round" stroke-linejoin="round" stroke-miterlimit="10" d="M329.1,213.4
	c7.3,1.1,4.5,11.9-2.1,10.9c-11.2-1.6-12.1-21.8,3.3-18.9c9.3,1.8,18.8,3.2,24.8,4.7c5.8,1.5,9.1,4.8,9.1,12.2s0,16.5,0,16.5"/>
<path fill="none" stroke="#697C60" stroke-linecap="round" stroke-linejoin="round" stroke-miterlimit="10" d="M143.3,89
	c0,0,0-11.8,0-18.6c0-6.8,0.1-9.9,7.9-13.7c7.8-3.8,25.4-14.6,32-17.4s10.5-1.4,15.1,1.1c7.8,4.2,29.4,14.1,36.6,17.6
	c16,7.6,5.6,26.6-5.9,20.7c-9.5-4.8-4.4-15.5,4.5-10.7"/>
<path fill="none" stroke="#697C60" stroke-linecap="round" stroke-linejoin="round" stroke-miterlimit="10" d="M194.3,156
	c0,0,0-75.7,0-86.1c0-10.4,3.9-8.8,8.8-6.6c9.1,3.9,6.8,12.4,1.2,10c-5.7-2.4-4-6.8,0-4.9"/>
<path fill="none" stroke="#697C60" stroke-linecap="round" stroke-linejoin="round" stroke-miterlimit="10" d="M226.1,149.4
	c0,0,0-45.2,0-51c0-7.7,3-8,7.9-6.6c0,0,54.1,22.4,60.6,24.9c6.2,2.5,8.8,5.5,8.8,11c0,4.3-2.6,10.1-8.1,8.4
	c-8.8-2.7-6.4-12.6-0.5-10.5"/>
<path fill="none" stroke="#697C60" stroke-linecap="round" stroke-linejoin="round" stroke-miterlimit="10" d="M259.2,154.1
	c0,0,0-20,0-25.7c0-5.7,0.6-8,4.9-6.2c4.4,1.9,3.2,8.1,0,7.1s-2.6-4.7,0-3.7"/>
<path fill="none" stroke="#697C60" stroke-linecap="round" stroke-linejoin="round" stroke-miterlimit="10" d="M113.5,161.3
	c0,0,0-6.4,0-11.7c0-2.5,2.6-9.4,5.9-10.6c4.1-1.5,5.8-2.3,8.3-3.2c7.6-2.8,7.8,6.3,2.3,7.9c-4.1,1.2-3.7-3.1-0.2-4.3"/>
<path fill="none" stroke="#697C60" stroke-linecap="round" stroke-linejoin="round" stroke-miterlimit="10" d="M163.7,88.6
	c0,0,0-12.1,0-16.5s1.4-8.7,5.9-11.1c6.1-3.2,8.4,5.2,1.7,8.4c-4.2,2-4.5-3.2-0.7-5.3"/>
<path fill="none" stroke="#697C60" stroke-linecap="round" stroke-linejoin="round" stroke-miterlimit="10" d="M161.3,89.4
	c0,0,0-11.1,0-15.5s-1.6-7.9-5-6.2c-6.6,3.3-5.5,11.4-0.9,9.4c4.2-1.7,3.8-6.8,0.3-5"/>
<path fill="none" stroke="#697C60" stroke-linecap="round" stroke-linejoin="round" stroke-miterlimit="10" d="M77.3,224.1
	c0,0,0-10.6,0-18.3c0-5.9,1.2-10.3,6.1-11.7c0.7-0.2,4.5-1.4,5.5-1.6c5.1-1.3,5.6,7.4,0.6,8.3c-4.4,0.8-4.4-3.5-0.8-4.2"/>
<path fill="none" stroke="#697C60" stroke-linecap="round" stroke-linejoin="round" stroke-miterlimit="10" d="M428,264.6
	c5,0.5,4.7,7-0.1,6.6c-8.8-0.9-7.6-14.3,0.7-13.4c6.5,0.6,8.1,4.6,8.1,9.9c0,3.9,0,14.6,0,14.6"/>
<path fill="none" stroke="#697C60" stroke-linecap="round" stroke-linejoin="round" stroke-miterlimit="10" d="M417.7,321.1
	c9.8-0.6,15-20.9,3.2-20.9c-7.2,0-7.3,11,0.6,10.4"/>
<path fill="none" stroke="#697C60" stroke-linecap="round" stroke-linejoin="round" stroke-miterlimit="10" d="M416,325.4
	c9.4-0.9,12.6,19.6,1.4,21.8c-12,2.3-12.4-12-3.6-12.9c6.5-0.7,6.5,6.1,1.9,6.7"/>
<path fill="none" stroke="#697C60" stroke-linecap="round" stroke-linejoin="round" stroke-miterlimit="10" d="M42.4,325.3
	c-12.3-1.4-16.2,17.9-3.9,20.3c8.6,1.6,10.4-10.4,3.5-11.4c-4.6-0.7-5.6,5.6-1.6,6.2"/>
<path fill="none" stroke="#697C60" stroke-linecap="round" stroke-linejoin="round" stroke-miterlimit="10" d="M42.6,320.8
	c-9.5-0.8-9.1-21,2.2-21c10.3,0,9.6,13.1,2.3,12.8c-6.5-0.3-5.5-6.7-1.4-6.5"/>
<path fill="none" stroke="#697C60" stroke-linecap="round" stroke-linejoin="round" stroke-miterlimit="10" d="M374.3,300.4
	c7.1,0,7.7,12.1-2.4,12.5c-12,0.5-14.2-24.1,5.1-24.1c28.8,0,25.1,50.2,9.3,52.4c-4.3,0.6-2.9-4.7-0.4-4.8"/>
<path fill="none" stroke="#697C60" stroke-linecap="round" stroke-linejoin="round" stroke-miterlimit="10" d="M349.6,276.5
	c-7.2-1.4-7-11.7,3-11.1c10,0.6,10.9,19.9-5.2,19.1c-17.8-0.9-22-35.1,1.9-33.1c18.4,1.5,19.1,22.9,41.4,23.5
	c5.4,0.2,12.5,0.7,15.3,0.8c11.4,0.4,1,13,15,13.1c0,0,16.7,0,19.6,0c5.8,0,9.4,2.1,9.4,9.8c0,8.2,0,23.1,0,31.9
	c0,10.6-6.2,6.1-6.2,15.4c0,5.2,0,8.5-7.2,10.1c-5.4,1.2-31,6.5-34.5,7.2c-8.3,1.7-4.9-5.7-15.7-3.7c-3.6,0.7-9.3,1.7-15.3,2.7
	c-23.7,4.2-17.9-21.3-40.1-18.4c-16.1,2.1-12.7,21.2-0.9,19.3c7.6-1.2,7.8-10.9,0-9.7"/>
<path fill="none" stroke="#697C60" stroke-linecap="round" stroke-linejoin="round" stroke-miterlimit="10" d="M72.4,235.9
	c-3.4,0.3-2.3,5.5,1,5c5.6-0.8,5-10-1.7-9c-4.7,0.7-5,0.9-8.1,1.5c-3.7,0.7-5.9,5.9-5.9,9.6c0,3.7,0,24.6,0,24.6"/>
<path fill="none" stroke="#697C60" stroke-linecap="round" stroke-linejoin="round" stroke-miterlimit="10" d="M127,213.4
	c-7.3,1.1-4.5,11.9,2.1,10.9c11.2-1.6,12.1-21.8-3.3-18.9c-9.3,1.8-18.8,4.2-24.8,5.7c-5.8,1.5-9.1,4.8-9.1,12.2s0,16.5,0,16.5"/>
<path fill="none" stroke="#697C60" stroke-linecap="round" stroke-linejoin="round" stroke-miterlimit="10" d="M89.8,300.4
	c-7.7,0-7.7,12.1,2.4,12.5c12,0.5,14.2-24.1-5.1-24.1c-28.8,0-20.8,55.5-5,57.6c5.7,0.8,5.3-4.6,1.9-5"/>
<path fill="none" stroke="#697C60" stroke-linecap="round" stroke-linejoin="round" stroke-miterlimit="10" d="M112.5,276.5
	c7.2-1.4,7-11.7-3-11.1c-10,0.6-10.9,19.9,5.2,19.1c17.8-0.9,22-35.3-1.9-33.1c-25.9,2.3-21.7,25.1-41,26.1
	c-4.9,0.3-11.4,0.6-14,0.7c-9.5,0.3-3.5,10.2-15.7,10.2c0,0-15.2,0.4-17.6,0.4c-6.5,0.1-9.5,2.3-9.5,9.9c0,8.2,0.1,24,0.1,32.8
	c0,10.6,3.1,5.3,3.1,14.6c0,5.2,0.1,8.9,8.7,11c4.5,1.1,41.7,8.8,44.5,9.4c23.8,5.2,32.5-25.1,60.3-21.7c11.6,1.4,12,20.4,0.2,18.6
	c-7.6-1.2-7.2-10.3,0-9.7"/>
<path fill="none" stroke="#697C60" stroke-linecap="round" stroke-linejoin="round" stroke-miterlimit="10" d="M134.5,184.2
	c3.3-0.8,2.6,3.5,7,2.4c3.3-0.8,3.3-4.5,7.6-5.5c8-1.9,8.2,8.3,1.8,9.7c-5.1,1.1-4.1-4.6-0.2-5.6"/>
<path fill="none" stroke="#697C60" stroke-linecap="round" stroke-linejoin="round" stroke-miterlimit="10" d="M335.8,183.8
	c-3.3-0.8-2.6,3.5-7,2.4c-3.3-0.8-3.3-4.5-7.6-5.5c-8-1.9-8.2,8.3-1.8,9.7c5.1,1.1,4.1-4.6,0.2-5.6"/>
<path fill="none" stroke="#697C60" stroke-linecap="round" stroke-linejoin="round" stroke-miterlimit="10" d="M245.1,359.4
	c3.8-11.9,21.4-45.5,37.6-46.1c16.2-0.7,12.2,18.5,2.1,19.5c-8.2,0.8-7.5-10.6,0.2-11"/>
<path fill="none" stroke="#697C60" stroke-linecap="round" stroke-linejoin="round" stroke-miterlimit="10" d="M241.5,339.7
	c12-19.8,39.3-52.2,69.9-52.2c14.2,0,13,19.9,0.9,19.9c-8.5,0-9.4-10.3-0.8-10.3"/>
<path fill="none" stroke="#697C60" stroke-linecap="round" stroke-linejoin="round" stroke-miterlimit="10" d="M237.8,329.2
	c3.7-9.2,20.3-57.4,36.7-57c13.4,0.3,9.8,15.4,0.8,15.1c-7.1-0.2-6.6-8.9,0.6-8.6"/>
<path fill="none" stroke="#697C60" stroke-linecap="round" stroke-linejoin="round" stroke-miterlimit="10" d="M290,280.6
	c8.1-6.5,16-17.5,23.9-16.9s5.9,11.4-0.5,8.4"/>
<path fill="none" stroke="#697C60" stroke-linecap="round" stroke-linejoin="round" stroke-miterlimit="10" d="M284.8,267.8
	c4.5-5.8,11.8-17.5,16.9-16.4c5.1,1.1,4.7,9-2.6,8.8"/>
<path fill="none" stroke="#697C60" stroke-linecap="round" stroke-linejoin="round" stroke-miterlimit="10" d="M228.3,329.1
	c-2.8-8.5-15.5-56.2-36.4-55c-9.9,0.6-8.3,13.3-0.1,13.3c6.3,0,7.6-7.6-0.1-7.1"/>
<path fill="none" stroke="#697C60" stroke-linecap="round" stroke-linejoin="round" stroke-miterlimit="10" d="M226.5,338.7
	c-5.8-7.5-31.6-51.7-73.2-51.7c-9.8,0-9.9,11-2.2,11.2c6.1,0.1,6.1-5.7,0.4-5.6"/>
<path fill="none" stroke="#697C60" stroke-linecap="round" stroke-linejoin="round" stroke-miterlimit="10" d="M150.7,272.2
	c-6.4,0.1-5.7-8-0.6-8.1c12.9-0.4,25.5,16.2,25.5,16.2"/>
<path fill="none" stroke="#697C60" stroke-linecap="round" stroke-linejoin="round" stroke-miterlimit="10" d="M164,260.4
	c-4,0-5.4-5.7,0-6.2c6.7-0.7,13.9,8.6,17.4,13.7"/>
<path fill="none" stroke="#697C60" stroke-linecap="round" stroke-linejoin="round" stroke-miterlimit="10" d="M173.2,315.6
	c4.7,0.4,3.8,5.8-1,5.4c-8.2-0.6-7.3-10.8,1.4-10.3c24.8,1.2,36.3,17.1,45.4,43.8"/>
<path fill="none" stroke="#697C60" stroke-linecap="round" stroke-linejoin="round" stroke-miterlimit="10" d="M227.4,269.7
	c-4.2,1.2-1.3,5.2,1.1,11.1c1.9,4.7,5.1,9.6,5.9,9.2c0.7-0.4-0.8-8.5-1.7-11.9C231.8,274.9,229.4,269.1,227.4,269.7z"/>
<path fill="none" stroke="#697C60" stroke-linecap="round" stroke-linejoin="round" stroke-miterlimit="10" d="M226.9,295.4
	c-0.5,1.2-0.6,5.5,0,6s3.7-0.2,5-2s2.6-6.1,1-7C231.2,291.6,227.7,293.2,226.9,295.4z"/>
<path fill="none" stroke="#697C60" stroke-linecap="round" stroke-linejoin="round" stroke-miterlimit="10" d="M234.7,298
	c0.5,1.2,3.3,4.4,4.1,4.4s2.6-2.7,2.3-4.9s-2.3-6.3-4.1-5.8C235.2,292.2,233.8,295.8,234.7,298z"/>
<path fill="none" stroke="#697C60" stroke-linecap="round" stroke-linejoin="round" stroke-miterlimit="10" d="M252.1,276.6
	c-2.3-3.8-5.3,0.1-10.4,4c-4,3.1-7.9,7.5-7.2,8.2c0.6,0.5,7.9-3.1,11-4.9C248.3,282.3,253.2,278.4,252.1,276.6z"/>
<path fill="none" stroke="#697C60" stroke-linecap="round" stroke-linejoin="round" stroke-miterlimit="10" d="M234.1,260.4
	c-3.9,0.5-1.8,4.2-0.5,9.5c1.1,4.2,3.3,8.8,4.1,8.5c0.7-0.3,0.4-7.3,0-10.3C237.4,265.4,236,260.2,234.1,260.4z"/>
<path fill="none" stroke="#697C60" stroke-linecap="round" stroke-linejoin="round" stroke-miterlimit="10" d="M252.6,262.4
	c-2.8-2.6-4.6,1.3-8.1,5.6c-2.8,3.4-5.2,8-4.4,8.3c0.6,0.3,6.2-4.2,8.4-6.4C250.5,267.9,253.9,263.6,252.6,262.4z"/>
<path fill="none" stroke="#697C60" stroke-linecap="round" stroke-linejoin="round" stroke-miterlimit="10" d="M240.1,251.4
	c-3.8-0.1-2.2,3.2-1.6,7.8c0.5,3.6,2.1,7.7,2.9,7.6c0.7-0.1,1.2-5.9,1.2-8.5C242.6,255.9,241.9,251.5,240.1,251.4z"/>
<path fill="none" stroke="#697C60" stroke-linecap="round" stroke-linejoin="round" stroke-miterlimit="10" d="M343.2,475
	c-9-2.6-7.3-14.1,3.4-11c12.3,3.6,12.1,28.4-9.9,21.3c-15.3-4.9-16.4-25.4-36.4-32.4c-11.7-4.1-19.4,5.8-29.2,2.9
	c-13.4-3.9-9.6-9.1-17-11.3c-6.3-1.9-7.2,7.1-1.4,9.1"/>
<path fill="none" stroke="#697C60" stroke-linecap="round" stroke-linejoin="round" stroke-miterlimit="10" d="M323.3,448.9
	c12.8,3.1,14.6,9.1,22.5,6.1c22.1-8.4,26.5,16.7,40.4,9.9c10.6-5.2,6.7-17.1-0.8-14c-5,2.1-4.9,10.1-0.9,8.8"/>
<path fill="none" stroke="#697C60" stroke-linecap="round" stroke-linejoin="round" stroke-miterlimit="10" d="M404,455.3
	c10.2-5.2,11.4,0.8,19.2,2.4c10,2,15.5-7.4,25.6-4.8"/>
<path fill="none" stroke="#697C60" stroke-linecap="round" stroke-linejoin="round" stroke-miterlimit="10" d="M127.5,475
	c9-2.6,7.3-14.1-3.4-11c-12.3,3.6-12.1,28.4,9.9,21.3c15.3-4.9,16.4-25.4,36.4-32.4c11.7-4.1,19.4,5.8,29.2,2.9
	c13.4-3.9,9.6-9.1,17-11.3c6.3-1.9,7.2,7.1,1.4,9.1"/>
<path fill="none" stroke="#697C60" stroke-linecap="round" stroke-linejoin="round" stroke-miterlimit="10" d="M147.4,448.9
	c-12.8,3.1-14.6,9.1-22.5,6.1c-22.1-8.4-26.5,16.7-40.4,9.9c-10.6-5.2-6.7-17.1,0.8-14c5,2.1,4.9,10.1,0.9,8.8"/>
<path fill="none" stroke="#697C60" stroke-linecap="round" stroke-linejoin="round" stroke-miterlimit="10" d="M66.7,455.3
	c-10.2-5.2-11.4,0.8-19.2,2.4c-10,2-15.5-7.4-25.6-4.8"/>
</svg>
