<?xml version="1.0" encoding="utf-8"?>
<!-- Generator: Adobe Illustrator 20.1.0, SVG Export Plug-In . SVG Version: 6.00 Build 0)  -->
<svg version="1.1" id="Layer_1" xmlns="http://www.w3.org/2000/svg" xmlns:xlink="http://www.w3.org/1999/xlink" x="0px" y="0px"
	 viewBox="0 0 26 40" enable-background="new 0 0 26 40" xml:space="preserve">
<path fill-rule="evenodd" clip-rule="evenodd" fill="none" stroke="#697c60" stroke-miterlimit="10" d="M19.6,6.1
	c-0.3,3,4.5,3.4,4.5-0.1c0-6.4-9.2-6-9.2,2.6c0,5.5,8.9,5.7,3,11.6c6.6,6.6-3,6.1-3,11.6c0,8.5,9.2,8,9.2,2.6c0-3.5-4.8-3.1-4.5-0.1
	"/>
<path fill-rule="evenodd" clip-rule="evenodd" fill="none" stroke="#697c60" stroke-miterlimit="10" d="M6.4,6.1
	c0.3,3-4.5,3.4-4.5-0.1c0-6.4,9.2-6,9.2,2.6c0,5.5-8.9,5.7-3,11.6c-6.6,6.6,3,6.1,3,11.6c0,8.5-9.2,8-9.2,2.6c0-3.5,4.8-3.1,4.5-0.1
	"/>
</svg>
