<svg id="Layer_1" data-name="Layer 1" xmlns="http://www.w3.org/2000/svg" viewBox="0 0 170.77 196">
  <defs>
    <style>
      .cls-1 {
        fill: #1b1d0e;
      }
    </style>
  </defs>
  <title>four-bottles</title>
  <path class="cls-1" d="M32.36,199.35c-6.16,0-14.86.11-19.35-2.69-1.63-1-1.57-4-1.57-4S9.54,129,9.6,120.28s0.65-10.65,1.84-15.87c1.75-7.65,11.14-8.33,12.17-12.58s1.79-15.28,1.79-15.28,0.36-20.54.36-20.78a2.2,2.2,0,0,0-.52-0.8s-0.08-4,0-4.37a7.71,7.71,0,0,1,.52-1.13,3.76,3.76,0,0,1,.47-2.17c0.61-1,5.89-1,5.89-1h1.94s5.28,0,5.89,1a3.76,3.76,0,0,1,.47,2.17,7.73,7.73,0,0,1,.52,1.13C41.05,51,41,55,41,55a2.2,2.2,0,0,0-.52.8c0,0.25.36,20.78,0.36,20.78s0.76,11,1.78,15.28S53,96.76,54.76,104.42c1.19,5.22,1.78,7.1,1.84,15.87s-1.84,72.39-1.84,72.39,0.06,3-1.57,4c-4.49,2.8-13.19,2.69-19.35,2.69H32.36Z" transform="translate(-9.59 -3.35)"/>
  <path class="cls-1" d="M153.51,199.35c-2.23,0-16.6-.54-19.33-1.72s-2.33-4.72-2.33-4.72-2.23-99.58-2.43-107.74-0.1-9.93,2-17S143,56.43,144.19,54.66s1.46-12.59,1.46-12.59,0.68-26.66.68-27.25a2.4,2.4,0,0,0-.68-1.28V8.92a4.13,4.13,0,0,0,.49-1.38c0-.49.19-2.75,0.87-3.25s4.86-.89,4.86-0.89,0.79-.06,2.84-0.06,3.14,0.06,3.14.06,4.18,0.39,4.86.89,0.87,2.75.87,3.25a4.13,4.13,0,0,0,.49,1.38v4.62a2.4,2.4,0,0,0-.68,1.28c0,0.59.68,27.25,0.68,27.25s0.29,10.82,1.46,12.59,10.59,6.39,12.73,13.48,2.24,8.86,2,17-2.43,107.74-2.43,107.74,0.39,3.54-2.33,4.72-16.33,1.72-18.56,1.72h-3.45Z" transform="translate(-9.59 -3.35)"/>
  <path class="cls-1" d="M91.93,199.35c-2.23,0-16.6-.54-19.33-1.72s-2.33-4.72-2.33-4.72S68,93.32,67.85,85.16s-0.1-9.93,2-17S81.45,56.43,82.62,54.66s1.46-12.59,1.46-12.59,0.68-26.66.68-27.25a2.4,2.4,0,0,0-.68-1.28V8.92a4.13,4.13,0,0,0,.49-1.38c0-.49.19-2.75,0.87-3.25s4.86-.89,4.86-0.89,0.79-.06,2.84-0.06,3.14,0.06,3.14.06,4.18,0.39,4.86.89S102,7,102,7.54a4.13,4.13,0,0,0,.49,1.38v4.62a2.4,2.4,0,0,0-.68,1.28c0,0.59.68,27.25,0.68,27.25s0.29,10.82,1.46,12.59,10.59,6.39,12.73,13.48,2.24,8.86,2,17-2.43,107.74-2.43,107.74,0.39,3.54-2.33,4.72-16.33,1.72-18.56,1.72H91.93Z" transform="translate(-9.59 -3.35)"/>
</svg>
