<svg id="Layer_1" data-name="Layer 1" xmlns="http://www.w3.org/2000/svg" xmlns:xlink="http://www.w3.org/1999/xlink" viewBox="0 0 249 571.63"><defs><style>.cls-1,.cls-2{fill:none;stroke-miterlimit:10;}.cls-1{stroke:url(#linear-gradient);}.cls-2{stroke:url(#linear-gradient-2);}.cls-3{fill:#c4c155;opacity:0.76;}.cls-4{fill:#bc9e53;}</style><linearGradient id="linear-gradient" x1="128.3" y1="363.47" x2="242.77" y2="363.47" gradientUnits="userSpaceOnUse"><stop offset="0" stop-color="#2e1a00"/><stop offset="1"/></linearGradient><linearGradient id="linear-gradient-2" x1="8.47" y1="363.47" x2="122.94" y2="363.47" xlink:href="#linear-gradient"/></defs><title>gift2bottles2</title><path id="_Compound_Path_" data-name="&lt;Compound Path&gt;" class="cls-1" d="M183.76,549.08c-14.87,0-35.88.26-46.72-6.52-3.92-2.46-3.78-9.66-3.78-9.66s-4.58-154.37-4.45-175.64,1.57-25.84,4.44-38.49c4.21-18.56,26.9-20.21,29.38-30.52s4.31-37.07,4.31-37.07.87-49.82.87-50.42-1.27-1.93-1.27-1.93-.2-9.67.07-10.6a18.72,18.72,0,0,1,1.27-2.74,9.15,9.15,0,0,1,1.13-5.27c1.47-2.34,14.21-2.34,14.21-2.34h4.68s12.74,0,14.21,2.34a9.15,9.15,0,0,1,1.14,5.27,18.81,18.81,0,0,1,1.27,2.74c.26.93.07,10.6.07,10.6s-1.27,1.33-1.27,1.93.87,50.42.87,50.42,1.83,26.76,4.31,37.07,25.16,12,29.37,30.52c2.87,12.66,4.31,17.22,4.44,38.49s-4.45,175.64-4.45,175.64.14,7.2-3.78,9.66c-10.83,6.78-31.84,6.52-46.71,6.52Z" transform="translate(-2.38 -3.47)"/><path id="_Compound_Path_2" data-name="&lt;Compound Path&gt;" class="cls-2" d="M63.92,549.08c-14.87,0-35.88.26-46.72-6.52-3.92-2.46-3.78-9.66-3.78-9.66S8.84,378.52,9,357.25s1.57-25.84,4.44-38.49c4.21-18.56,26.9-20.21,29.38-30.52s4.31-37.07,4.31-37.07.87-49.82.87-50.42-1.27-1.93-1.27-1.93-.2-9.67.07-10.6A18.72,18.72,0,0,1,48,185.47a9.15,9.15,0,0,1,1.13-5.27c1.47-2.34,14.21-2.34,14.21-2.34H68s12.74,0,14.21,2.34a9.15,9.15,0,0,1,1.14,5.27,18.81,18.81,0,0,1,1.27,2.74c.26.93.07,10.6.07,10.6s-1.27,1.33-1.27,1.93.87,50.42.87,50.42,1.83,26.76,4.31,37.07,25.16,12,29.37,30.52c2.87,12.66,4.31,17.22,4.44,38.49S118,532.89,118,532.89s.14,7.2-3.78,9.66c-10.83,6.78-31.84,6.52-46.71,6.52Z" transform="translate(-2.38 -3.47)"/><path id="_Compound_Path_3" data-name="&lt;Compound Path&gt;" class="cls-3" d="M167.84,40.09H91.3L2.38,138.39v436.7h249V135.46Zm-77.53,53h73.41c8.76,0,15.86,9.24,15.86,18s-7.1,18-15.86,18H90.32c-8.76,0-15.86-9.24-15.86-18S81.56,93.09,90.32,93.09Zm11.06,443H43.92c-3.72,0-6.54-4.28-6.54-9.43V261.07c0-5.15,16.18-19.56,32.8-19.56s31.2,14.41,31.2,19.56Zm115-9.43c0,5.15-3.08,9.43-6.8,9.43h-57.2v-275c0-5.15,14.38-19.56,31-19.56s33,14.41,33,19.56Zm-205-405.84V81.4c0-15.18,14-25.31,29.2-25.31h30Zm232.87-.89L187.18,56.09h30c15.19,0,27.22,10.11,27.22,25.29Z" transform="translate(-2.38 -3.47)"/><path id="_Compound_Path_4" data-name="&lt;Compound Path&gt;" class="cls-4" d="M33.19,99.2c14.33-9.9,20.47-33.94,23.93-39.14,5.8-2.76,16.25.3,32.76-8.8-6,9.12-9.69,35.52-4.61,48.16a41.23,41.23,0,0,1,6.94-3.1c2.81-.87,10.3,9.09,8.51,3.92-12.06-34.79-2.66-50.82,9.15-60.46,2.91-2.37,5.23-3.59,9.8-5.58A2.06,2.06,0,0,1,122.52,36c.2,4.64.55,10.06,2.09,14,3.56,9.09,12.24,3.86,8.9-3.18-1.49-3.14-5.16-8-5.31-11.08-.42-8.63,7.21,2.44,8.22,4.26.76-.06,3,0,4.3,0-1.57-4.28,3.45-13.42,12.89-1.84C171.36,60,184.18,52.86,207.24,49.66c.88,1.44,4.55,7.52,4.55,7.52l15.42.19s-3.79-7.67-4.83-9.57c17.39-4.83,25.29-19.85,12.83-35.27-16.48-20.4-69.05-1-88.68,6.36-3.68,1.39-7.58,4.19-10.8,2.46-.19-.1-2.68-5.08-4.58-5.64-3.61-1.07-5.05-1-7.06,3.27a2.79,2.79,0,0,1-2.89,1.58c-16.09-2.09-32.33.85-48.38-3C59.63,14.45,45.33,9.82,32.24,16c-8.43,4-15.91,21.67-11.95,31.41,4.39,10.8,23.6,10.87,23.9,10.91-2,3-7.07,26.13-34.65,40.82,0,0,14.13-7.08,18.84-5.67C30.15,94,33.19,99.2,33.19,99.2ZM203.73,4.71C218,4.3,231,8.86,230.54,21.27,230,34,229.11,40.11,218.93,42.34c-.52-.74-1-1.5-1.59-2.22C206,25.67,175.64,18.94,158.08,21,163.86,17.95,193.47,5,203.73,4.71ZM32.1,43c-12.68-6.18-14.3-27.56,14.69-23.66,8.8,1.18,17.53,2.83,26.08,4.8,1.78.41,3.54.74,5.3,1C68.34,31,55,42.64,48.32,52.27,41.55,52,38.1,46,32.1,43ZM91.9,26.42c1.92,0,17.24.25,25.23,1a1.31,1.31,0,0,1,.43,2.49c-7,3.3-16.37,7.22-19.74,9.75-6.23,4.67-12.67,8.07-17.35,8.92s-18.36,3-20.82,3.18C67.18,41.26,78.5,29.72,91.9,26.42Zm83.69,15.7c-8.81-3-17.18-9.16-25.76-12.83,18.54-5.89,42.62-.17,54.58,13.7C196,43.39,182,44.3,175.59,42.12Z" transform="translate(-2.38 -3.47)"/></svg>