<svg version="1.1" xmlns="http://www.w3.org/2000/svg" xmlns:xlink="http://www.w3.org/1999/xlink" x="0px" y="0px"
	 viewBox="0 0 430.2 420.6" enable-background="new 0 0 430.2 420.6" xml:space="preserve">
<path fill="none" stroke="#BC9E53" stroke-miterlimit="10" d="M222.8,400.5c-15.6,0-40.2,0.3-51.6-6.8
	c-4.1-2.6-4-10.1-4-10.1s-0.6-168.2-0.6-190.5c0-12.5,1.6-24.4,4.6-37.6c4.4-19.4,21.5-25.2,24-36c2.6-10.8,3.2-30.8,3.2-30.8
	s0.9-49.5,0.9-50.1c0-0.6-1.3-2-1.3-2s-0.2-10.1,0.1-11.1c0.3-1,1.3-2.9,1.3-2.9s-0.4-3.1,1.2-5.5c1.5-2.4,14.9-2.4,14.9-2.4h22.3
	c0,0,13.3,0,14.9,2.4c1.5,2.4,1.2,5.5,1.2,5.5s1,1.9,1.3,2.9c0.3,1,0.1,11.1,0.1,11.1s-1.3,1.4-1.3,2c0,0.6,0.9,50.1,0.9,50.1
	s0.6,20,3.2,30.8c2.6,10.8,19.6,16.5,24,36c3,13.2,4.6,25.9,4.6,37.6c0,22.3-0.6,190.5-0.6,190.5s0.1,7.5-4,10.1
	c-11.3,7.1-36,6.8-51.6,6.8H222.8z"/>
<path fill="none" stroke="#BC9E53" stroke-miterlimit="10" d="M87.1,400.5c-15.6,0-40.2,0.3-51.6-6.8
	c-4.1-2.6-4-10.1-4-10.1s-0.6-168.2-0.6-190.5c0-12.5,1.6-24.4,4.6-37.6c4.4-19.4,21.5-25.2,24-36c2.6-10.8,3.2-30.8,3.2-30.8
	s0.9-49.5,0.9-50.1c0-0.6-1.3-2-1.3-2s-0.2-10.1,0.1-11.1c0.3-1,1.3-2.9,1.3-2.9s-0.4-3.1,1.2-5.5c1.5-2.4,14.9-2.4,14.9-2.4h22.3
	c0,0,13.3,0,14.9,2.4c1.5,2.4,1.2,5.5,1.2,5.5s1,1.9,1.3,2.9c0.3,1,0.1,11.1,0.1,11.1s-1.3,1.4-1.3,2c0,0.6,0.9,50.1,0.9,50.1
	s0.6,20,3.2,30.8c2.6,10.8,19.6,16.5,24,36c3,13.2,4.6,25.9,4.6,37.6c0,22.3-0.6,190.5-0.6,190.5s0.1,7.5-4,10.1
	c-11.3,7.1-36,6.8-51.6,6.8H87.1z"/>
<path fill="none" stroke="#BC9E53" stroke-miterlimit="10" d="M354.4,400.5c-15.6,0-40.2,0.3-51.6-6.8
	c-4.1-2.6-4-10.1-4-10.1s-0.6-168.2-0.6-190.5c0-12.5,1.6-24.4,4.6-37.6c4.4-19.4,21.5-25.2,24-36c2.6-10.8,3.2-30.8,3.2-30.8
	s0.9-49.5,0.9-50.1c0-0.6-1.3-2-1.3-2s-0.2-10.1,0.1-11.1c0.3-1,1.3-2.9,1.3-2.9s-0.4-3.1,1.2-5.5c1.5-2.4,14.9-2.4,14.9-2.4h22.3
	c0,0,13.3,0,14.9,2.4c1.5,2.4,1.2,5.5,1.2,5.5s1,1.9,1.3,2.9c0.3,1,0.1,11.1,0.1,11.1s-1.3,1.4-1.3,2c0,0.6,0.9,50.1,0.9,50.1
	s0.6,20,3.2,30.8c2.6,10.8,19.6,16.5,24,36c3,13.2,4.6,25.9,4.6,37.6c0,22.3-0.6,190.5-0.6,190.5s0.1,7.5-4,10.1
	c-11.3,7.1-36,6.8-51.6,6.8H354.4z"/>
<path opacity="0.4" fill="#C4C155" d="M17.2,0v413h413V0H17.2z M378.2,361h-310V51h310V361z"/>
<path opacity="0.7" fill="#BC9E53" d="M381.3,287.4c16.3,6,28.8-3.3,31.5-21.3c2.7-17.9-20.1-45.7-31-58.7c19.6,0,37-1.6,46.8,0
	c2.2-16.3,0.5-40.8,0-53.6c-9.2,0.3-50,0.8-66.4,2.8c-16.3,2-83.8,2.9-94.1,3.9c-10.3,1.1-26.7,4.4-37.4,10.1c-7-2.5-14.2-6.8-30-9
	c-18.5-13.6-160.3-18.5-182-19l-0.2,55.5c0,0,56.6-3.8,70.7-2.2c-12.5,4.4-28.8,10.9-45.7,17.9C26.7,221,1.2,242,1.2,242l32,59
	c0,0,58.6-41.8,76-50c-9.8,9.2-32.5,38-34.2,39.4C73.4,291.8,0,361.9,0,361.9l37,42c0,0,47.3-50.1,59.3-60.5
	c12-10.3,47.9-60.9,55.5-73.2c7.6-12.3,49-54.6,54.4-62.2c4.4-1.6,12-3.3,19-6c12,2.2,33.7,21.8,44.6,28.3c4.9,9.2,7.6,16.9,12,29.9
	c4.4,13.1,32.6,56,32.6,56l68,104.4l47.3-29.4c0,0-69.6-104.4-72.9-109.3C362.8,281.9,365,281.4,381.3,287.4z M307.8,189.5
	c17.9,0.5,36.4,4.9,53.8,13.6c17.4,8.7,30.5,23.4,33.2,34.8s-10.9,21.8-27.2,36.7C358.4,251.9,329.1,211.8,307.8,189.5z"/>
</svg>