<?xml version="1.0" encoding="utf-8"?>
<!-- Generator: Adobe Illustrator 20.0.0, SVG Export Plug-In . SVG Version: 6.00 Build 0)  -->
<svg version="1.1" id="Layer_1" xmlns="http://www.w3.org/2000/svg" xmlns:xlink="http://www.w3.org/1999/xlink" x="0px" y="0px"
	 viewBox="0 0 258.2 573" style="enable-background:new 0 0 258.2 573;" xml:space="preserve">
<style type="text/css">
	.st0{fill:none;stroke:#BC9E53;}
	.st1{opacity:0.4;fill:#C4C155;enable-background:new    ;}
	.st2{opacity:0.7;fill:#BC9E53;enable-background:new    ;}
</style>
<path class="st0" d="M185.4,543c-14.9,0-35.9,0.3-46.7-6.5c-3.9-2.5-3.8-9.7-3.8-9.7s-4.6-154.4-4.4-175.6
	c0.1-21.3,1.6-25.8,4.4-38.5c4.2-18.6,26.9-20.2,29.4-30.5s4.3-37.1,4.3-37.1s0.9-49.8,0.9-50.4c0-0.6-1.3-1.9-1.3-1.9
	s-0.2-9.7,0.1-10.6c0.3-0.9,1.3-2.7,1.3-2.7s-0.3-2.9,1.1-5.3c1.5-2.3,14.2-2.3,14.2-2.3h4.7c0,0,12.7,0,14.2,2.3s1.1,5.3,1.1,5.3
	s1,1.8,1.3,2.7s0.1,10.6,0.1,10.6s-1.3,1.3-1.3,1.9c0,0.6,0.9,50.4,0.9,50.4s1.8,26.8,4.3,37.1c2.5,10.3,25.2,12,29.4,30.5
	c2.9,12.7,4.3,17.2,4.4,38.5c0.1,21.3-4.4,175.6-4.4,175.6s0.1,7.2-3.8,9.7c-10.8,6.8-31.8,6.5-46.7,6.5H185.4z"/>
<path class="st0" d="M65.5,543c-14.9,0-35.9,0.3-46.7-6.5c-3.9-2.5-3.8-9.7-3.8-9.7s-4.5-154.4-4.4-175.6
	c0.1-21.3,1.6-25.8,4.4-38.5c4.2-18.6,26.9-20.2,29.4-30.5s4.3-37.1,4.3-37.1s0.9-49.8,0.9-50.4c0-0.6-1.3-1.9-1.3-1.9
	s-0.2-9.7,0.1-10.6c0.3-0.9,1.3-2.7,1.3-2.7s-0.3-2.9,1.1-5.3c1.5-2.3,14.2-2.3,14.2-2.3h4.7c0,0,12.7,0,14.2,2.3s1.1,5.3,1.1,5.3
	s1,1.8,1.3,2.7s0.1,10.6,0.1,10.6s-1.3,1.3-1.3,1.9c0,0.6,0.9,50.4,0.9,50.4s1.8,26.8,4.3,37.1c2.5,10.3,25.2,12,29.4,30.5
	c2.9,12.7,4.3,17.2,4.4,38.5s-4.4,175.6-4.4,175.6s0.1,7.2-3.8,9.7C105,543.2,84,543,69.1,543H65.5z"/>
<path class="st1" d="M169.5,41H92.9L4,139.3V569h249V136.4L169.5,41z M91.9,94h73.4c8.8,0,15.9,9.2,15.9,18s-7.1,18-15.9,18H91.9
	c-8.8,0-15.9-9.2-15.9-18S83.2,94,91.9,94z M103,530H45.5c-3.7,0-6.5-4.3-6.5-9.4V255c0-5.1,16.2-19.6,32.8-19.6S103,249.8,103,255
	V530z M218,520.6c0,5.1-3.1,9.4-6.8,9.4H154V255c0-5.1,14.4-19.6,31-19.6s33,14.4,33,19.6V520.6z M13,121.7V82.3
	C13,67.1,27,57,42.2,57h30L13,121.7z M245.9,120.8L188.8,57h30C234,57,246,67.1,246,82.3L245.9,120.8z"/>
<path id="XMLID_2_" class="st2" d="M31.1,99.5C45.4,89.6,51.6,65.5,55,60.3c5.8-2.8,16.2,0.3,32.8-8.8c-6,9.1-9.7,35.5-4.6,48.2
	c0,0,3.6-2.1,6.9-3.1c2.8-0.9,10.3,9.1,8.5,3.9c-12.1-34.8-2.7-50.8,9.1-60.5c2.9-2.4,5.2-3.6,9.8-5.6c1.3-0.6,2.8,0.4,2.9,1.8
	c0.2,4.6,0.6,10.1,2.1,14c3.6,9.1,12.2,3.9,8.9-3.2c-1.5-3.1-5.2-8-5.3-11.1c-0.4-8.6,7.2,2.4,8.2,4.3c0.8-0.1,3,0,4.3,0
	c-1.6-4.3,3.5-13.4,12.9-1.8c17.8,21.8,30.6,14.7,53.6,11.5c0.9,1.4,4.5,7.5,4.5,7.5l15.4,0.2c0,0-3.8-7.7-4.8-9.6
	c17.4-4.8,25.3-19.9,12.8-35.3c-16.5-20.4-69.1-1-88.7,6.4c-3.7,1.4-7.6,4.2-10.8,2.5c-0.2-0.1-2.7-5.1-4.6-5.6
	c-3.6-1.1-5.1-1-7.1,3.3c-0.5,1.1-1.7,1.7-2.9,1.6c-16.1-2.1-32.3,0.9-48.4-3c-13.2-3.1-27.5-7.8-40.6-1.6
	c-8.4,4-15.9,21.7-11.9,31.4c4.4,10.8,23.6,10.9,23.9,10.9c-2,3-7.1,26.1-34.6,40.8c0,0,14.1-7.1,18.8-5.7
	C28,94.3,31.1,99.5,31.1,99.5z M201.6,5c14.3-0.4,27.3,4.2,26.8,16.6c-0.5,12.7-1.4,18.8-11.6,21.1c-0.5-0.7-1-1.5-1.6-2.2
	c-11.3-14.4-41.7-21.2-59.3-19.1C161.8,18.2,191.4,5.3,201.6,5z M30,43.3c-12.7-6.2-14.3-27.6,14.7-23.7c8.8,1.2,17.5,2.8,26.1,4.8
	c1.8,0.4,3.5,0.7,5.3,1c-9.8,5.8-23.2,17.4-29.9,27.1C39.4,52.3,36,46.2,30,43.3z M89.8,26.7c1.9,0,17.2,0.2,25.2,1
	c1.3,0.1,1.6,1.9,0.4,2.5c-7,3.3-16.4,7.2-19.7,9.8C89.5,44.6,83,48,78.4,48.9c-4.7,0.9-18.4,3-20.8,3.2
	C65.1,41.5,76.4,30,89.8,26.7z M173.5,42.4c-8.8-3-17.2-9.2-25.8-12.8c18.5-5.9,42.6-0.2,54.6,13.7
	C193.9,43.7,179.9,44.6,173.5,42.4z"/>
</svg>
