<svg version="1.1" xmlns="http://www.w3.org/2000/svg" xmlns:xlink="http://www.w3.org/1999/xlink" x="0px" y="0px"
	 viewBox="0 0 205 325" xml:space="preserve">
<path fill="none" stroke="#8D9989" stroke-width="1.5px" d="M169.4,256.2c0,5.9-15.2,12.3-16.9,12.8c-1.7,0.6-0.6,3.5-4.5,3.9
	c-3.9,0.4-27.2,2-43.8,2c0,0,0,0,0,0c-0.1,0-0.2,0-0.2,0c-0.1,0-0.2,0-0.2,0c0,0,0,0,0,0c-16.6,0-39.9-1.7-43.8-2
	c-3.9-0.4-2.8-3.3-4.5-3.9c-1.7-0.6-16.9-6.9-16.9-12.8s0.6-13.4,0.6-13.4s0-142,0-147.6c0-5.6,2-6.1,3.6-7.8
	c1.7-1.7,4.8-3.2,4.8-8.7c-3,0-5-5.6,0-5.6c0-1.7-0.7-3.9-0.7-3.9h-6.1V55.8l5.2-2.2l3-2.6H159l3,2.6l5.2,2.2v13.4h-6.1
	c0,0-0.7,2.2-0.7,3.9c5,0,3,5.6,0,5.6c0,5.6,3.2,7.1,4.8,8.7c1.7,1.7,3.6,2.2,3.6,7.8c0,5.6,0,147.6,0,147.6
	S169.4,250.3,169.4,256.2z"/>
</svg>