<svg id="Layer_1" data-name="Layer 1" xmlns="http://www.w3.org/2000/svg" viewBox="0 0 173.6 30.12">
  <defs>
    <style>
      .cls-1 {
        fill: #000;
        fill-rule: evenodd;
      }
    </style>
  </defs>
  <title>motive001</title>
  <path class="cls-1" d="M158.12,3.16C135.88,3,139.93,29.8,93.6,29.8v0.72c45.62,0,42-22.32,65.24-22.32C176,8.2,176.12,31.4,161,31.4c-7.13,0-6.94-7.2-12.24-7.2a1.38,1.38,0,0,0,0,.72c4.62,0,4,7.2,12.24,7.2C180.38,32.12,178.71,3.31,158.12,3.16ZM110.88,11.8c-8.05-3.51-19.61,12.12-21.6,18C95.33,26.63,117.39,14.7,110.88,11.8ZM87.84,2c-5.52,0-3.23,16.72,0,26.36C90.69,18.66,92.82,2,87.84,2ZM14.61,32.12c8.25,0,7.62-7.2,12.25-7.2a1.38,1.38,0,0,0,0-.72c-5.3,0-5.12,7.2-12.25,7.2-15.13,0-15-23.2,2.16-23.2C40,8.2,36.41,30.52,82.08,30.52V29.8C35.71,29.8,39.76,3,17.49,3.16-3.11,3.31-4.79,32.12,14.61,32.12ZM64.78,11.8c-6.51,2.9,15.57,14.83,21.62,18C84.42,23.92,72.85,8.29,64.78,11.8Z" transform="translate(-1 -2)"/>
</svg>
