<svg id="Layer_1" data-name="Layer 1" xmlns="http://www.w3.org/2000/svg" viewBox="0 0 201.56 43.37"><defs><style>.cls-1{fill:#2B3B22;fill-rule:evenodd;}</style></defs><title>motive003</title><path class="cls-1" d="M136,13.15c-4.09-1.78-15.46,4.29-20.37,9-5.93,5.63-8.86,12.22-12,16.51,2.84-.16,10.22-4.56,16.87-10.8C125.54,23.1,142.6,16,136,13.15ZM101.8,0.81c-7.11,0-4.16,23.53,0,35.95C105.46,24.27,108.21.81,101.8,0.81Z" transform="translate(-0.72 -0.81)"/><path class="cls-1" d="M194.68,7.16c-8.46,0-5.68,9.55,0,7.35,1.13-.48,1-1.63,0-1.63-2.2,0-2.6-3.6.72-3.6,6.75,0,9.63,10.92-6.93,10.92a10,10,0,0,0-1.45.08c-11.46,1.1-8.4,15.28.45,12.3,2.13-.76,1.81-3.75,0-3.48-6.82,1-6.45-7.17,1-7.17,10.51,0,5.24,20.22-10,20.22-20.67,0-18.48-14.09-38.69-14.09-16.76,0-21.56,13.83-33.8,13.83-2.29,0-2.44,1.64,0,1.64,10.37,0,19-11,33.8-11,21.23,0,18.24,11.64,38.69,11.64,20.26,0,23.67-16.15,16.29-21.94C205.65,20.17,203.9,7.16,194.68,7.16Z" transform="translate(-0.72 -0.81)"/><path class="cls-1" d="M67,13.15c4.09-1.78,15.46,4.29,20.37,9,5.93,5.63,8.86,12.22,12,16.51C96.5,38.46,89.12,34,82.48,27.81,77.46,23.1,60.4,16,67,13.15Z" transform="translate(-0.72 -0.81)"/><path class="cls-1" d="M8.32,7.16c8.46,0,5.68,9.55,0,7.35-1.13-.48-1-1.63,0-1.63,2.2,0,2.6-3.6-.72-3.6C0.85,9.29-2,20.21,14.53,20.21a10,10,0,0,1,1.45.08c11.46,1.1,8.4,15.28-.45,12.3-2.13-.76-1.81-3.75,0-3.48,6.82,1,6.45-7.17-1-7.17-10.51,0-5.24,20.22,10,20.22,20.67,0,18.48-14.09,38.69-14.09C80,28.06,84.77,41.89,97,41.89c2.29,0,2.44,1.64,0,1.64-10.37,0-19-11-33.8-11C42,32.55,45,44.19,24.53,44.19,4.27,44.19.86,28,8.23,22.25-2.65,20.17-.9,7.16,8.32,7.16Z" transform="translate(-0.72 -0.81)"/></svg>