<svg id="Layer_1" data-name="Layer 1" xmlns="http://www.w3.org/2000/svg" viewBox="0 0 39.23 32.45">
  <defs>
    <style>
      .cls-1 {
        fill: #3F5733;
      }
    </style>
  </defs>
  <title>motive</title>
  <path class="cls-1" d="M39,24c-4.17,0-8.78-3.26-11.85-5.43A24.61,24.61,0,0,0,25,17.17c-4-2.07-12.79-3.48-17.52-3.78a0.5,0.5,0,1,1,.06-1c5,0.32,13.8,1.73,17.92,3.9a24.51,24.51,0,0,1,2.25,1.49c2.81,2,7.52,5.34,11.4,5.25a0.51,0.51,0,0,1,.51.49,0.5,0.5,0,0,1-.49.51H39Z" transform="translate(-0.38 -0.27)"/>
  <path class="cls-1" d="M28.09,25.59c-1.11,2-2,5.4.42,6.55,1.39,0.66,3.74-.45,4.79-2.34s2-4.73-.16-5.88C30.78,22.63,28.63,24.6,28.09,25.59Z" transform="translate(-0.38 -0.27)"/>
  <path class="cls-1" d="M30.7,5.77c1.25-.16,2.46,13.37.71,13.37S29,6,30.7,5.77Z" transform="translate(-0.38 -0.27)"/>
  <path class="cls-1" d="M17.16,32.68c-1.09-.63,7.4-14.68,9.59-13.32C28.61,20.52,18.69,33.56,17.16,32.68Z" transform="translate(-0.38 -0.27)"/>
  <path class="cls-1" d="M13.64,4.12c0.68-.82,9.9,7.67,8.8,8.68S12.68,5.28,13.64,4.12Z" transform="translate(-0.38 -0.27)"/>
  <path class="cls-1" d="M11,21.47c-0.32-1,11.82-4.14,12.07-2.66S11.48,22.9,11,21.47Z" transform="translate(-0.38 -0.27)"/>
  <path class="cls-1" d="M19.69,0.28c1.72,0.41,10.75,15.94,8.06,15.47C25.8,15.42,17.66-.2,19.69.28Z" transform="translate(-0.38 -0.27)"/>
  <path class="cls-1" d="M0.48,16.16c1.26-1.23,18.66-1,16.83,1C16,18.67-1,17.61.48,16.16Z" transform="translate(-0.38 -0.27)"/>
</svg>
