<svg id="Layer_1" data-name="Layer 1" xmlns="http://www.w3.org/2000/svg" viewBox="0 0 146.57 24.5"><defs><style>.cls-1{fill:#b8cd47;}</style></defs><title>oandw-logo2</title><path class="cls-1" d="M27.39,9.76c-0.09-.3-1-2.9-1.12-3.4a4.56,4.56,0,0,0-1-1.7c-0.19-.2-0.37-1.9-1.59-2.7-0.84-.6-2-0.6-2.9-1A8.73,8.73,0,0,0,18,.06a29.89,29.89,0,0,0-3,0,2.07,2.07,0,0,0-1.12.2,17.75,17.75,0,0,1-1.78.4,11.13,11.13,0,0,0-3,1.2c-0.28.1-.75,0.4-1,0.5a5.49,5.49,0,0,0-1.78,1.3,4.58,4.58,0,0,1-1,.9,15,15,0,0,1-2.25,2.1,5.48,5.48,0,0,0-.75.7,1.74,1.74,0,0,0-.37.5c-0.09.4-.37,1.7-0.47,1.9-0.09.7-.47,1.3-0.56,2a10.8,10.8,0,0,0-.19,3,5,5,0,0,1,.19,1.6,29.73,29.73,0,0,0,1.68,3.1,8.9,8.9,0,0,0,1.31,1.4A12.09,12.09,0,0,1,5.12,22c0.37,0.2.75,0.5,1.12,0.7,0.56,0.2,1.22.3,1.78,0.5a4.39,4.39,0,0,0,1.22.3c0.37,0,3.46.8,3.84,0.7a15.44,15.44,0,0,1,2.15,0c0.37,0,1.12.1,1.5,0.1,0.19,0,.56-0.1.75-0.1a10.19,10.19,0,0,0,5.24-1.9,9.74,9.74,0,0,0,1.59-1.2l0.56-.6a6.56,6.56,0,0,1,.56-1.2c0.28,0,.75-1.6.75-1.7a1.57,1.57,0,0,0,.75-1c0.09-.5.37-2.3,0.37-2.7,0-.6.28-1,0.28-1.6S27.39,10.06,27.39,9.76Zm-2.81.2c0,0.7-.09,1.3-0.09,2s0.47,1.3.19,2.1l-0.56,1.5a17,17,0,0,1-.94,2.9c-0.19.4-.28,0.8-0.47,1.1-0.37.5-.84,0.8-1.22,1.3a7.53,7.53,0,0,1-1.68,1.2,5.49,5.49,0,0,1-2.15.7c-0.37,0-.84-0.1-1.22-0.1a2.46,2.46,0,0,1-1.22.3,25.37,25.37,0,0,0-2.71-.4H11.77a6.85,6.85,0,0,1-1.22-.6,7.63,7.63,0,0,1-1.31-.6,6.68,6.68,0,0,1-.84-0.7,6.25,6.25,0,0,1-1.22-.5c-0.28-.3-0.66-0.6-0.94-0.9a4.69,4.69,0,0,1-.84-1.2,5.53,5.53,0,0,0-.56-0.8,4.84,4.84,0,0,1-1.22-1.2c0.09-.4-0.47-3.8-0.47-4a12.51,12.51,0,0,1,.37-2c0.37-.3.56-1.7,0.94-2.1a0.33,0.33,0,0,0,.28-0.1c0.19-.2.19-0.5,0.37-0.7a7.5,7.5,0,0,1,1-1.4,10.32,10.32,0,0,1,1.4-1.5c0.19-.2.47-0.2,0.66-0.4a3.29,3.29,0,0,1,.56-0.6,1.34,1.34,0,0,1,.37-0.2c0.56-.3,1.12-0.7,1.68-1,0.19-.1.37,0,0.56-0.1,0.37-.1,2.06-0.9,2.53-1a11.66,11.66,0,0,1,3.65.4,15.58,15.58,0,0,1,3.09,1.4C21,3.26,23,5.16,23.18,5.56a8.21,8.21,0,0,1,.37.9c0.19,0.4.47,1.5,0.56,1.7S25.15,9.56,24.59,10Z" transform="translate(-0.69)"/><path class="cls-1" d="M32.28,19.71a1.12,1.12,0,0,0-.21-0.83,31.2,31.2,0,0,1-.1-3.31,16.53,16.53,0,0,1,0-3.21,7.35,7.35,0,0,0,.31-2.17V8.84a17.54,17.54,0,0,0,.1-2.38,4.36,4.36,0,0,0-.31-2,3.4,3.4,0,0,1,.1-1.76A5.53,5.53,0,0,0,32,.46c-0.21-.52-0.64-0.06-1.06.15a6.28,6.28,0,0,1-1,.72c0.31,0.31.31,2.79,0.41,3s-0.21,3.42.41,3.73c-0.62.52-.1,6.62-0.1,7.45a8,8,0,0,1-.21,1.55,12.55,12.55,0,0,0-.52,1.45,3.68,3.68,0,0,1,.21,1A10.08,10.08,0,0,0,29.87,22a9.66,9.66,0,0,1,.41,2.28c0,0.21,1.88-.67,1.78-1s0.21-1.35.21-1.76A11.18,11.18,0,0,0,32.28,19.71Z" transform="translate(-0.69)"/><path class="cls-1" d="M36.56,13.85a3.48,3.48,0,0,0,.37-1.62c0-.62.74-2.38-0.49-2.26A3.9,3.9,0,0,0,35,11a1.24,1.24,0,0,0-.49.62c0,0.25.25,0.51,0.25,0.76s0,1.62.12,1.87L35,14.47a2.56,2.56,0,0,1,.12.62,2.45,2.45,0,0,0,.12,1,3.42,3.42,0,0,0,0,1.12c0.12,0.5.74,2.12,0.37,2.62a4,4,0,0,0-.25,1.74c-0.12.5-.12,0.87-0.25,1.25s-0.49,1-.12,1.25,0.62,0,.86-0.25c0.62-.5,1.48-0.75,2.1-1.25,1-.75-0.12-1.37-0.12-2.37,0-1.25.12-1.74,0.12-3a2.31,2.31,0,0,0-.49-1.62A3.34,3.34,0,0,1,36.56,13.85Z" transform="translate(-0.69)"/><path class="cls-1" d="M50.15,10.44c-1,.62-1,2.62-1.11,3.61-0.12.5-.49,1-0.62,1.5a10.55,10.55,0,0,1-.49,1.74,9.94,9.94,0,0,0-.49,1.12c-0.25.62-.49,1.12-0.74,1.62s-0.37,1.25-.74,1.25c-0.62,0-.62-1.25-1-1.62a9.94,9.94,0,0,1-.49-1.12c-0.12-.5-0.62-1-0.74-1.62a16.77,16.77,0,0,0-1.11-3A7.26,7.26,0,0,1,42,12.18a4.09,4.09,0,0,0-.49-1.74c-0.37-.5-0.49-0.5-1-0.25s-1.36.75-1.23,1.25,0.62,1.37.86,2c0.12,0.25.25,0.62,0.37,0.87s0.49,0.37.62,0.62a9.93,9.93,0,0,0,.37,1.62,1.43,1.43,0,0,0,.37.87C42,17.54,43,19.91,43.37,20.66s1.23,2.62,1.36,3,0.12,0.62.62,0.5a5,5,0,0,0,1.48-1.25s0.49-1.25.62-1.5a28.67,28.67,0,0,1,1.23-2.87c0.25-.5.62-1,0.86-1.5s0.37-1.37.62-2.12,0.49-1.62.74-2.49a16.75,16.75,0,0,0,.86-2.24,2.89,2.89,0,0,0-1.6.25h0Z" transform="translate(-0.69)"/><path class="cls-1" d="M64.79,20.22c-0.62,0-1,.75-1.36,1.12A6.25,6.25,0,0,1,62,22.4c-0.86.37-5.18,0-5.18,0a6.44,6.44,0,0,1-1.36-1,11.3,11.3,0,0,1-1.23-1.25,1.92,1.92,0,0,1-.49-0.75c0-.37-0.25-1.12-0.25-1.37a1.88,1.88,0,0,1,.7-1.23,6.54,6.54,0,0,1,2,0,14.9,14.9,0,0,1,3.33.12,29.73,29.73,0,0,0,3.33-.12c0.62,0,2.1,0,2.22-.25a8.93,8.93,0,0,0-.51-2.61c-0.62-1.5-1.48-2-2.47-3-0.45-.22-0.86-0.25-1.36-0.5a1.87,1.87,0,0,0-1.12-.16c-0.49.12-1.36,0-1.85,0.12a6.51,6.51,0,0,0-2.34,1.4A15.42,15.42,0,0,0,54,12.93a18.24,18.24,0,0,0-1.11,1.62,5.29,5.29,0,0,0-1.11,3.12,6.13,6.13,0,0,0,.12,1.5,6.11,6.11,0,0,0,.37.87c0.12,0.25.74,1.87,0.86,2,0.37,0.37.74,0.62,1.11,1a5.75,5.75,0,0,0,2.71,1.12,27.52,27.52,0,0,0,3.21,0,9.59,9.59,0,0,0,2.71-.62,3.79,3.79,0,0,0,1.85-1.25C64.95,21.66,65.78,20.22,64.79,20.22Zm-8-7.66a8.45,8.45,0,0,1,2.09-.95c1.5-.09,2.47.2,3.09,1.57,0.49,1.12,1.4,1.64.66,1.76-0.25,0-3.18.2-3.55,0.2a28.45,28.45,0,0,1-4.61,0A7.43,7.43,0,0,1,56.81,12.56Z" transform="translate(-0.69)"/><path class="cls-1" d="M94,13.39c-0.49-.37-0.73-1-1.35-0.74-1,.25-0.12.74,0,1.35a1.73,1.73,0,0,1-.12,1.1,2.39,2.39,0,0,1-2.45,1.47c-0.61-.12-1.47-0.49-1.71-0.49a11.55,11.55,0,0,1-1.22-1.23,3.42,3.42,0,0,0-2.69,0A9.56,9.56,0,0,0,82,16.21c-0.37.37,0.12,1.23,0.61,0.61a3.11,3.11,0,0,1,1.22-1,2.1,2.1,0,0,1,1.71.12c0.86,0.37,2.82,1.59,2.94,2.57,0.24,1.59-1.35,2.7-2.33,3.43a1.28,1.28,0,0,0-.49.37,3.14,3.14,0,0,1-.61.25,2.59,2.59,0,0,1-.86.37c-0.24,0-2.45.12-3.43,0.12-1.35-.12-2.08-1-2.94-2-0.49-.61-1.22-1.72-0.73-2.45a7.74,7.74,0,0,0,.49-1.1c-0.12-.49,2.08-4.17,3.43-4.17a5.14,5.14,0,0,1,1.47-.86h0.86c0.12,0,1.22.25,1.47,0.25,0.49,0.12.37,0,.86-0.25,0.24-.25.73-0.12,1-0.37s-1-1.23-1.59-1a7.23,7.23,0,0,1-2.33.12,4.93,4.93,0,0,1-3.55-1.72A0.84,0.84,0,0,1,78.85,9a1.76,1.76,0,0,1,.61-1.35,4.39,4.39,0,0,1,1.71-1.23C81.42,6.28,81.79,6.16,82,6s1.22-.12,1.59-0.12h1.84c0.24,0,.86.25,1,0.25,0.37,0,.24.37,0.61,0s-0.49-1.35-.61-1.35a2.92,2.92,0,0,0-2.33-.37,3.38,3.38,0,0,0-1.1.12,14.43,14.43,0,0,0-2,1c-0.12,0-.73.37-0.86,0.37s-2.08,1.84-2.33,2.21a1.34,1.34,0,0,0,0,1,6.73,6.73,0,0,0,0,1.59c0.12,0.12.24,0.37,0.37,0.49a10.75,10.75,0,0,0,1.84,1.47,3.25,3.25,0,0,1-.73.61,1.44,1.44,0,0,0-.61.61,16,16,0,0,0-1.35,1.47,6.17,6.17,0,0,0-2.08,3.8,3.94,3.94,0,0,0,.12,1.72l1.1,2.21A2.86,2.86,0,0,0,78,24.3c0.2,0,1.37.2,2.53,0.2s2-.2,2.37-0.2a12.9,12.9,0,0,0,2.94-.74,14.42,14.42,0,0,0,2.33-1.35l1.1-.74a11.94,11.94,0,0,0,1.22-1.84A1,1,0,0,1,90.84,19a1.31,1.31,0,0,1,0-1,3.2,3.2,0,0,1,1-.37A5.71,5.71,0,0,0,93,17.07C93.41,16.58,94.27,13.64,94,13.39Z" transform="translate(-0.69)"/><path class="cls-1" d="M123.1,8.2a5.49,5.49,0,0,0,.5-1.7c0.1-.3.6-0.6,0.4-1-0.1-.1.8-2.4,0.9-3s0.1-.9.2-1.4a6.37,6.37,0,0,1,.2-0.7c0.1-.5-1.8.5-2.4,1.1s-0.3.4-.4,1.1a19.48,19.48,0,0,1-.2,2.5,10.41,10.41,0,0,0-.6,1.6,25.58,25.58,0,0,1-.5,2.7,28,28,0,0,0-.9,3.1,4.61,4.61,0,0,0-.5,1,3.73,3.73,0,0,1-.2,1.2,15.36,15.36,0,0,0-1.1,3,9.37,9.37,0,0,0-.9-1.8c-0.1-.6-0.5-2.7-0.6-3.1a10.93,10.93,0,0,0-.5-1.7c0.1,0-1-3.2-.9-3.4a25.58,25.58,0,0,0-.5-2.7,2.4,2.4,0,0,1-.3-1.3V3.2a2.52,2.52,0,0,0-.6-1.7c-0.3-.5-0.3-0.7-1-0.6a2.15,2.15,0,0,0-.9,1.2,5.55,5.55,0,0,1-.6.8,10.11,10.11,0,0,0-.3,1.7,23.35,23.35,0,0,1-.4,2.6c-0.6,1.7-.87,3-1.37,4.74-0.2.5-.53,2.66-0.72,3.16s-1.4,2.3-1.1,2.3c-0.9,0-.9-2.3-1-2.8-0.2-1-.4-2.2-1.3-2.8,0.6-.3-0.6-2.1-0.7-2.3A3.68,3.68,0,0,1,104,8a0.48,0.48,0,0,1,.1-0.4,6.53,6.53,0,0,0-.2-1.1,11.76,11.76,0,0,0-.7-2,1.54,1.54,0,0,1-.2-1.1A19.57,19.57,0,0,0,101.8,0a12.54,12.54,0,0,0-2.1,1.4,1.14,1.14,0,0,0-.3.6,3.92,3.92,0,0,0,.8,1.4,13.32,13.32,0,0,0,.5,1.9c0.1,0.2.4,0.3,0.5,0.5a4.1,4.1,0,0,1,.1,1.1,30.68,30.68,0,0,0,1.4,3.4c0.1,0.2.3,0.4,0.4,0.6,0.2,0.4,0,.6.6,0.4a8.75,8.75,0,0,0,.2,1.6,3,3,0,0,0,.4,1,7.27,7.27,0,0,1,.6,2.1,1.8,1.8,0,0,0,.2,1,3.17,3.17,0,0,1,.5,1.4,11.22,11.22,0,0,0,.5,1.3c0.1,0.4.5,2.2,0.6,2.7,0.1,0.3.2,0.7,0.3,1s0.5,0.7.7,1.1a2.36,2.36,0,0,0,.8-1.9c0.1-.4.3-1.6,0.3-1.7a18.48,18.48,0,0,1,.6-2.6c0.2-.6,1.4-4.7,1.5-5.1a12.33,12.33,0,0,1,.8-2.6,4.45,4.45,0,0,0,.8-2c0.1-.3.1-1,0.5-1a10.81,10.81,0,0,1,.5,2.1,17,17,0,0,1,1.2,3,8.87,8.87,0,0,0,.3,1.4,3.33,3.33,0,0,0,.6,1,8,8,0,0,1,.3,1.5,12.37,12.37,0,0,1,.2,1.8c0,0.2-.1.5-0.1,0.7s0.3,1.4.4,1.7a9.22,9.22,0,0,0,.5.8,11.7,11.7,0,0,0,.5,2,1.24,1.24,0,0,0,.6.8c0.7,0.1.9-.7,1.1-1.2a18.66,18.66,0,0,0,.7-2.2c0.1-.3.7-1.5,0.8-1.9a13.4,13.4,0,0,1-.1-2c0.2-.7.7-1.4,0.9-2.1a6.19,6.19,0,0,1,.7-1.9,5.47,5.47,0,0,0,.9-2.8C122.6,10.1,122.7,8.7,123.1,8.2Z" transform="translate(-0.69)"/><path class="cls-1" d="M35.82,4.25c-1.85,0-2,3.24,0,3.12S37.79,4.25,35.82,4.25Z" transform="translate(-0.69)"/><path class="cls-1" d="M136.71,20.22c-0.62,0-1,.75-1.36,1.12a6.25,6.25,0,0,1-1.45,1.07c-0.86.37-5.18,0-5.18,0a6.44,6.44,0,0,1-1.36-1,11.3,11.3,0,0,1-1.23-1.25,1.92,1.92,0,0,1-.49-0.75c0-.37-0.25-1.12-0.25-1.37a1.88,1.88,0,0,1,.7-1.23,6.54,6.54,0,0,1,2,0,14.9,14.9,0,0,1,3.33.12,29.73,29.73,0,0,0,3.33-.12c0.62,0,2.1,0,2.22-.25a8.93,8.93,0,0,0-.51-2.61c-0.62-1.5-1.48-2-2.47-3-0.45-.22-0.86-0.25-1.36-0.5a1.87,1.87,0,0,0-1.12-.16c-0.49.12-1.36,0-1.85,0.12a6.51,6.51,0,0,0-2.34,1.4,15.42,15.42,0,0,0-1.48,1.12,18.24,18.24,0,0,0-1.11,1.62,5.29,5.29,0,0,0-1.11,3.12,6.13,6.13,0,0,0,.12,1.5,6.11,6.11,0,0,0,.37.87c0.12,0.25.74,1.87,0.86,2,0.37,0.37.74,0.62,1.11,1a5.75,5.75,0,0,0,2.71,1.12,27.52,27.52,0,0,0,3.21,0,9.59,9.59,0,0,0,2.71-.62,3.79,3.79,0,0,0,1.85-1.25C136.86,21.66,137.7,20.22,136.71,20.22Zm-8-7.66a8.45,8.45,0,0,1,2.09-.95c1.5-.09,2.47.2,3.09,1.57,0.49,1.12,1.4,1.64.66,1.76-0.25,0-3.18.2-3.55,0.2a28.45,28.45,0,0,1-4.61,0A7.43,7.43,0,0,1,128.73,12.56Z" transform="translate(-0.69)"/><path class="cls-1" d="M142.09,19.68a1.12,1.12,0,0,0-.21-0.83,31.2,31.2,0,0,1-.1-3.31,16.53,16.53,0,0,1,0-3.21,7.35,7.35,0,0,0,.31-2.17V8.81a17.54,17.54,0,0,0,.1-2.38,4.36,4.36,0,0,0-.31-2A3.4,3.4,0,0,1,142,2.7a5.53,5.53,0,0,0-.21-2.28c-0.21-.52-0.64-0.06-1.06.15a6.28,6.28,0,0,1-1,.72c0.31,0.31.31,2.79,0.41,3s-0.21,3.42.41,3.73c-0.62.52-.1,6.62-0.1,7.45A8,8,0,0,1,140.2,17a12.55,12.55,0,0,0-.52,1.45,3.68,3.68,0,0,1,.21,1,10.08,10.08,0,0,0-.21,2.48,9.66,9.66,0,0,1,.41,2.28c0,0.21,1.88-.67,1.78-1s0.21-1.35.21-1.76A11.18,11.18,0,0,0,142.09,19.68Z" transform="translate(-0.69)"/><path class="cls-1" d="M147.12,19.68a1.12,1.12,0,0,0-.21-0.83,31.2,31.2,0,0,1-.1-3.31,16.53,16.53,0,0,1,0-3.21,7.35,7.35,0,0,0,.31-2.17V8.81a17.54,17.54,0,0,0,.1-2.38,4.36,4.36,0,0,0-.31-2A3.4,3.4,0,0,1,147,2.7a5.53,5.53,0,0,0-.21-2.28c-0.21-.52-0.64-0.06-1.06.15a6.28,6.28,0,0,1-1,.72c0.31,0.31.31,2.79,0.41,3s-0.21,3.42.41,3.73c-0.62.52-.1,6.62-0.1,7.45a8,8,0,0,1-.21,1.55,12.55,12.55,0,0,0-.52,1.45,3.68,3.68,0,0,1,.21,1,10.08,10.08,0,0,0-.21,2.48,9.66,9.66,0,0,1,.41,2.28c0,0.21,1.88-.67,1.78-1s0.21-1.35.21-1.76A11.18,11.18,0,0,0,147.12,19.68Z" transform="translate(-0.69)"/></svg>