<?xml version="1.0" encoding="utf-8"?>
<!-- Generator: Adobe Illustrator 20.1.0, SVG Export Plug-In . SVG Version: 6.00 Build 0)  -->
<svg version="1.1" id="Layer_1" xmlns="http://www.w3.org/2000/svg" xmlns:xlink="http://www.w3.org/1999/xlink" x="0px" y="0px"
	 viewBox="0 0 150 48" enable-background="new 0 0 150 48" xml:space="preserve">
<path fill-rule="evenodd" clip-rule="evenodd" fill="none" stroke="#697c60" stroke-linecap="round" stroke-linejoin="round" stroke-miterlimit="10" d="M125.6,23.4
	c-7.9,0-8.9,9.9,2.8,9.9c9.8,0,10.9-21.7-12.9-21.7c-18.4,0-20.6,13.4-36.3,13.4 M136.2,33.3c15.6,0,13.4,13.2,4.8,13.2
	c-5.1,0-5.5-5.6,0-5.6 M24.5,23.4c7.9,0,8.9,9.9-2.8,9.9c-9.8,0-10.9-21.7,12.9-21.7c18.4,0,20.6,13.4,36.3,13.4 M9,40.9
	c5.5,0,5.1,5.6,0,5.6c-8.6,0-10.9-13.2,4.8-13.2 M88.6,8c-1.5-0.6-5.6,1.5-7.4,3.2c-2.1,2-3.2,4.4-4.3,6c1-0.1,3.7-1.6,6.1-3.9
	C84.8,11.6,90.9,9,88.6,8z M75.1,14.5c-1.5-4.5-2.6-13,0-13C77.4,1.5,76.4,10,75.1,14.5z M67,13.3c2.4,2.3,5.1,3.8,6.1,3.9
	c-1.1-1.5-2.2-3.9-4.3-6C67,9.5,62.9,7.3,61.4,8C59.1,9,65.2,11.6,67,13.3z"/>
</svg>
