<?xml version="1.0" encoding="utf-8"?>
<!-- Generator: Adobe Illustrator 20.1.0, SVG Export Plug-In . SVG Version: 6.00 Build 0)  -->
<svg version="1.1" id="Layer_1" xmlns="http://www.w3.org/2000/svg" xmlns:xlink="http://www.w3.org/1999/xlink" x="0px" y="0px"
	 viewBox="0 0 236 45" enable-background="new 0 0 236 45" xml:space="preserve">
<path fill-rule="evenodd" clip-rule="evenodd" fill="none" stroke="#697c60" stroke-miterlimit="10" d="M23.1,24.3
	c7.9,0,8.9-9.9-2.8-9.9c-9.8,0-10.9,21.7,12.9,21.7c18.4,0,20.6-13.4,36.3-13.4s23.9,13.4,35.1,13.4c4,0,16.5-4.7,14.2,3.3
	c-0.7,2.2-3,4.9-5,4.1c-2.2-0.9-1.4-4.7-1-6.1c1.2-4.2,9.4-4.1,10.6-4.1c5.9,0,3.8,8.2,0.3,8.5c-3.6,0.2-6.5-11,0.4-10.4
	c3.5,0.3,11.4,4.9,17.7,1.2c7-4.1,14.3-9.8,25.1-9.8c15.7,0,17.9,13.4,36.3,13.4c23.7,0,22.6-21.7,12.9-21.7
	c-11.7,0-10.7,9.9-2.8,9.9 M223.4,14.5c15.6,0,13.4-13.2,4.8-13.2c-5.1,0-5.5,5.6,0,5.6 M7.8,6.9c5.5,0,5.1-5.6,0-5.6
	c-8.6,0-10.9,13.2,4.8,13.2"/>
<path fill="none" stroke="#697c60" stroke-miterlimit="10" d="M140.4,22.6c-0.4-1.2-14.8,4.3-13.8,6.7
	C127.5,31.3,141,24.2,140.4,22.6z"/>
<path fill="none" stroke="#697c60" stroke-miterlimit="10" d="M128.4,19.4c-1.1-0.5-8.1,9.3-5.8,10.2
	C124.6,30.4,130,20.1,128.4,19.4z"/>
<path fill="none" stroke="#697c60" stroke-miterlimit="10" d="M112.7,18.7c0.9-0.6,7.7,9.9,6.4,10.6C117.8,30,111.5,19.6,112.7,18.7
	z"/>
<path fill="none" stroke="#697c60" stroke-miterlimit="10" d="M101.4,22.5c1.7-0.6,17.7,7.5,15.2,8.6
	C114.8,31.8,99.4,23.2,101.4,22.5z"/>
<path fill="none" stroke="#697c60" stroke-miterlimit="10" d="M99.1,29.2c1.2-0.6,13.3,2.5,11.5,3.6C109.3,33.6,97.7,29.9,99.1,29.2
	z"/>
</svg>
