<?xml version="1.0" encoding="utf-8"?>
<!-- Generator: Adobe Illustrator 20.1.0, SVG Export Plug-In . SVG Version: 6.00 Build 0)  -->
<svg version="1.1" id="Layer_1" xmlns="http://www.w3.org/2000/svg" xmlns:xlink="http://www.w3.org/1999/xlink" x="0px" y="0px"
	 viewBox="0 0 238 44" enable-background="new 0 0 238 44" xml:space="preserve">
<path fill-rule="evenodd" clip-rule="evenodd" fill="none" stroke="#BFCABA" stroke-miterlimit="10" d="M214.2,24.8
	c-7.9,0-8.9-9.9,2.8-9.9c9.8,0,10.9,21.7-12.9,21.7c-18.4,0-20.6-13.4-36.3-13.4s-23.9,13.4-35.1,13.4 M224.4,14.9
	c15.6,0,13.4-13.2,4.8-13.2c-5.1,0-5.5,5.6,0,5.6 M24.1,24.8c7.9,0,8.9-9.9-2.8-9.9c-9.8,0-10.9,21.7,12.9,21.7
	c18.4,0,20.6-13.4,36.3-13.4s23.9,13.4,35.1,13.4 M8.8,7.4c5.5,0,5.1-5.6,0-5.6C0.2,1.7-2,14.9,13.6,14.9 M104.8,26.4
	c1.2-0.8,5.4,0.2,7.3,1.2c2.3,1.3,3.8,3,5.1,4.1c-1,0.2-3.7-0.6-6.3-2C108.9,28.7,102.8,27.8,104.8,26.4z M137.9,21.7
	c0,2.2-5,6-8.1,7.3c-3.7,1.5-7.2,1.5-9.8,2c0.6-1.2,4.1-3.6,8.2-5.3C131.4,24.4,137.9,18.2,137.9,21.7z M115.2,42.1
	c2.8,1.5,8.7-5.7,3-7.4C112.6,33.1,111.6,40.2,115.2,42.1z M124.6,40.8c3.2,0.2,5.6-8.8-0.3-8C118.6,33.6,120.6,40.5,124.6,40.8z"/>
</svg>
