<?xml version="1.0" encoding="utf-8"?>
<!-- Generator: Adobe Illustrator 20.1.0, SVG Export Plug-In . SVG Version: 6.00 Build 0)  -->
<svg version="1.1" id="Layer_1" xmlns="http://www.w3.org/2000/svg" xmlns:xlink="http://www.w3.org/1999/xlink" x="0px" y="0px"
	 viewBox="0 0 218 38" enable-background="new 0 0 218 38" xml:space="preserve">
<path fill-rule="evenodd" clip-rule="evenodd" fill="none" stroke="#BFCABA" stroke-miterlimit="10" d="M194.2,24.6
	c-7.9,0-8.9-9.9,2.8-9.9c9.8,0,10.9,21.7-12.9,21.7c-18.4,0-20.6-13.4-36.3-13.4s-23.9,13.4-35.1,13.4 M204.4,14.7
	c15.6,0,13.4-13.2,4.8-13.2c-5.1,0-5.5,5.6,0,5.6 M24.1,24.6c7.9,0,8.9-9.9-2.8-9.9c-9.8,0-10.9,21.7,12.9,21.7
	c18.4,0,20.6-13.4,36.3-13.4s23.9,13.4,35.1,13.4 M8.8,7.1c5.5,0,5.1-5.6,0-5.6C0.2,1.5-2,14.7,13.6,14.7 M131.8,12.2
	c-2.6-1.1-9.7,2.7-12.7,5.6c-3.7,3.5-5.5,7.6-7.5,10.3c1.8-0.1,6.4-2.9,10.5-6.8C125.2,18.5,135.9,14,131.8,12.2z M109.3,25
	c-2.6-7.8-4.4-22.5,0-22.5C113.3,2.5,111.6,17.2,109.3,25z M96.2,21.4c4.2,3.9,8.8,6.7,10.5,6.8c-2-2.7-3.8-6.8-7.5-10.3
	c-3.1-2.9-10.2-6.7-12.7-5.6C82.4,14,93.1,18.5,96.2,21.4z"/>
</svg>
