<svg id="Layer_1" data-name="Layer 1" xmlns="http://www.w3.org/2000/svg" viewBox="0 0 186.15 99.6">
  <defs>
    <style>
      .cls-1 {
        fill: #8EA286;
        stroke: none;
        stroke-miterlimit: 10;
        opacity: 0.2;
      }
    </style>
  </defs>
  <title>seasoning-packages</title>
  <path class="cls-1" d="M127.27,94.43c0,2.62-6.71,5.4-7.45,5.65s-0.25,1.55-2,1.72-12,.89-19.28.9H98.36c-7.3,0-17.58-.74-19.28-0.9s-1.23-1.47-2-1.72-7.45-3-7.45-5.65S70,88.54,70,88.54v-65a3.52,3.52,0,0,1,1.6-3.44c0.74-.74,2.13-1.39,2.13-3.85-1.31,0-2.21-2.45,0-2.45a6.72,6.72,0,0,0-.33-1.72h-2.7V6.23l2.29-1L74.25,4.1h48.44L124,5.24l2.29,1v5.89h-2.7a6.72,6.72,0,0,0-.33,1.72c2.21,0,1.31,2.45,0,2.45,0,2.45,1.39,3.11,2.13,3.85a3.52,3.52,0,0,1,1.6,3.44v65S127.27,91.81,127.27,94.43Z" transform="translate(-2.04 -3.6)"/>
  <path class="cls-1" d="M29.62,22.52l-27-.89L6.83,92.84s5.73,0.15,8.6,1.78c2.63,1.5,7.21,7.65,15.25,7.65s10.55-6.15,13.18-7.65c2.87-1.64,8.6-1.78,8.6-1.78l4.2-71.21Z" transform="translate(-2.04 -3.6)"/>
  <path class="cls-1" d="M139,51.69c6.21-.13,19.45,1.77,25.49,1.17s19.1,0,22.93.53c-1.47,2.7-.86,5.1-3.3,8.74-1.58,5.46-1.72,11.73-1.55,18.69,0.26,10.69-.54,16.81,4,19.62-6.29,3.2-19,2-24.53,2.1s-20.7.57-24.65-.92c-2.81-1.06,2.77-2.88,4.91-3.95,1.52-7-.74-11.58,0-16.28C143.88,71.53,144.31,65.45,139,51.69Z" transform="translate(-2.04 -3.6)"/>
</svg>
