<svg version="1.1" xmlns="http://www.w3.org/2000/svg" xmlns:xlink="http://www.w3.org/1999/xlink" x="0px" y="0px" viewBox="0 0 54 200" enable-background="new 0 0 54 200" xml:space="preserve">
<path fill="none" stroke="#8D9989" stroke-width="1" stroke-miterlimit="10" d="M26,198.2c-6.2,0-14.9,0.1-19.4-2.7c-1.6-1-1.5-4-1.5-4
	s-0.1-63.6,0-72.4c0.1-8.8,0.7-10.6,1.9-15.9c1.7-7.7,9.1-8.3,10.2-12.6c1-4.2,1.8-15.3,1.8-15.3s0.4-20.5,0.4-20.8
	c0-0.2-0.5-0.8-0.5-0.8s-0.1-4,0-4.4c0.1-0.4,0.5-1.1,0.5-1.1s-0.1-1.2,0.5-2.2c0.6-1,5.9-1,5.9-1h1.9c0,0,5.3,0,5.9,1
	c0.6,1,0.5,2.2,0.5,2.2s0.4,0.7,0.5,1.1c0.1,0.4,0,4.4,0,4.4s-0.5,0.5-0.5,0.8c0,0.2,0.4,20.8,0.4,20.8s0.8,11,1.8,15.3
	c1,4.2,8.4,4.9,10.2,12.6c1.2,5.2,1.9,7.1,1.9,15.9c0.1,8.8,0,72.4,0,72.4s0.1,3-1.5,4c-4.5,2.8-13.2,2.7-19.3,2.7H26z"/>
</svg>
