<svg version="1.1" xmlns="http://www.w3.org/2000/svg" xmlns:xlink="http://www.w3.org/1999/xlink" x="0px" y="0px"
	 viewBox="0 0 54 200" enable-background="new 0 0 54 200" xml:space="preserve">
<path fill="none" stroke="#8D9989" stroke-width="1" stroke-miterlimit="10" d="M26,198.2c-4,0-10.2,0.1-13.1-1.7
	c-1-0.7-1-2.6-1-2.6s-0.2-42.7-0.2-48.4c0-3.2,0.4-6.2,1.2-9.6c1.1-4.9,5.4-6.4,6.1-9.1c0.7-2.7,0.8-7.8,0.8-7.8s0.2-12.6,0.2-12.7
	c0-0.2-0.3-0.5-0.3-0.5s-0.1-2.6,0-2.8c0.1-0.2,0.3-0.7,0.3-0.7s-0.1-0.8,0.3-1.4c0.4-0.6,3.8-0.6,3.8-0.6h5.7c0,0,3.4,0,3.8,0.6
	c0.4,0.6,0.3,1.4,0.3,1.4s0.3,0.5,0.3,0.7c0.1,0.2,0,2.8,0,2.8s-0.3,0.4-0.3,0.5c0,0.2,0.2,12.7,0.2,12.7s0.1,5.1,0.8,7.8
	c0.7,2.7,5,4.2,6.1,9.1c0.8,3.4,1.2,6.6,1.2,9.6c0,5.7-0.2,48.4-0.2,48.4s0,1.9-1,2.6c-2.9,1.8-9.1,1.7-13.1,1.7H26z"/>
</svg>