<svg version="1.1" xmlns="http://www.w3.org/2000/svg" xmlns:xlink="http://www.w3.org/1999/xlink" x="0px" y="0px" viewBox="0 0 54 171.6"  xml:space="preserve">
	<path fill="none" stroke="#8D9989" stroke-width="1" d="M25.3,171.1c-6.9,0-17.8,0.1-22.8-3c-1.8-1.1-1.8-4.5-1.8-4.5S0.4,89.2,0.4,79.4c0-5.5,0.7-10.8,2.1-16.6c2-8.6,9.5-11.1,10.6-15.9c1.1-4.8,1.4-13.6,1.4-13.6s0.4-21.9,0.4-22.2c0-0.3-0.6-0.9-0.6-0.9s-0.1-4.5,0-4.9C14.5,4.8,15,4,15,4s-0.2-1.4,0.5-2.4c0.7-1.1,6.6-1.1,6.6-1.1h9.9c0,0,5.9,0,6.6,1.1C39.2,2.6,39.1,4,39.1,4s0.5,0.8,0.6,1.3c0.1,0.4,0,4.9,0,4.9s-0.6,0.6-0.6,0.9c0,0.3,0.4,22.2,0.4,22.2s0.3,8.8,1.4,13.6c1.1,4.8,8.7,7.3,10.6,15.9c1.3,5.9,2.1,11.5,2.1,16.6c0,9.8-0.3,84.3-0.3,84.3s0.1,3.3-1.8,4.5c-5,3.1-15.9,3-22.8,3H25.3z"/>
</svg>