<svg id="Layer_1" data-name="Layer 1" xmlns="http://www.w3.org/2000/svg" viewBox="0 0 146.77 197">
  <defs>
    <style>
      .cls-1, .cls-2 {
        fill: #8EA286;
        stroke: none;
        stroke-miterlimit: 10;
        opacity: 0.2;
      }
    </style>
  </defs>
  <title>three-bottles</title>
  <path class="cls-1" d="M28.36,199.35c-6.16,0-14.86.11-19.35-2.69-1.63-1-1.57-4-1.57-4S5.54,129,5.6,120.28s0.65-10.65,1.84-15.87c1.75-7.65,11.14-8.33,12.17-12.58s1.79-15.28,1.79-15.28,0.36-20.54.36-20.78a2.2,2.2,0,0,0-.52-0.8s-0.08-4,0-4.37a7.71,7.71,0,0,1,.52-1.13,3.76,3.76,0,0,1,.47-2.17c0.61-1,5.89-1,5.89-1h1.94s5.28,0,5.89,1a3.76,3.76,0,0,1,.47,2.17,7.73,7.73,0,0,1,.52,1.13C37.05,51,37,55,37,55a2.2,2.2,0,0,0-.52.8c0,0.25.36,20.78,0.36,20.78s0.76,11,1.78,15.28S49,96.76,50.76,104.42c1.19,5.22,1.78,7.1,1.84,15.87s-1.84,72.39-1.84,72.39,0.06,3-1.57,4c-4.49,2.8-13.19,2.69-19.35,2.69H28.36Z" transform="translate(-5.09 -2.85)"/>
  <path class="cls-1" d="M124.51,199.35c-2.23,0-16.6-.54-19.33-1.72s-2.33-4.72-2.33-4.72-2.23-99.58-2.43-107.74-0.1-9.93,2-17S114,56.43,115.19,54.66s1.46-12.59,1.46-12.59,0.68-26.66.68-27.25a2.4,2.4,0,0,0-.68-1.28V8.92a4.13,4.13,0,0,0,.49-1.38c0-.49.19-2.75,0.87-3.25s4.86-.89,4.86-0.89,0.79-.06,2.84-0.06,3.14,0.06,3.14.06,4.18,0.39,4.86.89,0.87,2.75.87,3.25a4.13,4.13,0,0,0,.49,1.38v4.62a2.4,2.4,0,0,0-.68,1.28c0,0.59.68,27.25,0.68,27.25s0.29,10.82,1.46,12.59,10.59,6.39,12.73,13.48,2.24,8.86,2,17-2.43,107.74-2.43,107.74,0.39,3.54-2.33,4.72-16.33,1.72-18.56,1.72h-3.45Z" transform="translate(-5.09 -2.85)"/>
  <path id="_Compound_Path_" data-name="&lt;Compound Path&gt;" class="cls-2" d="M75.49,199.35c-4,0-10.22.07-13.1-1.73-1-.65-1-2.57-1-2.57s-0.16-42.74-.16-48.39a42.21,42.21,0,0,1,1.18-9.55c1.12-4.93,5.45-6.39,6.11-9.13a51.14,51.14,0,0,0,.81-7.81s0.23-12.56.23-12.72a1.42,1.42,0,0,0-.34-0.51s-0.05-2.57,0-2.82a5,5,0,0,1,.34-0.73,2.43,2.43,0,0,1,.3-1.4c0.39-.62,3.78-0.62,3.78-0.62h5.67s3.39,0,3.78.62a2.43,2.43,0,0,1,.3,1.4,5,5,0,0,1,.34.73c0.07,0.25,0,2.82,0,2.82a1.42,1.42,0,0,0-.34.51c0,0.16.23,12.72,0.23,12.72a51,51,0,0,0,.8,7.81c0.66,2.74,5,4.2,6.11,9.13a43.66,43.66,0,0,1,1.18,9.55c0,5.65-.16,48.39-0.16,48.39s0,1.91-1,2.57c-2.88,1.8-9.14,1.73-13.1,1.73h-2Z" transform="translate(-5.09 -2.85)"/>
</svg>
