<?xml version="1.0" encoding="utf-8"?>
<!-- Generator: Adobe Illustrator 20.1.0, SVG Export Plug-In . SVG Version: 6.00 Build 0)  -->
<svg version="1.1" id="line_art_1_" xmlns="http://www.w3.org/2000/svg" xmlns:xlink="http://www.w3.org/1999/xlink" x="0px"
	 y="0px" viewBox="0 0 508 462" enable-background="new 0 0 508 462" xml:space="preserve">
<path fill="none" stroke="#697C60" stroke-miterlimit="10" d="M269.2,460c-15.9-6.6-13.3-32.2-1.3-27.5c12.4,4.8,2.8,11.6-2,9.9
	c-14.7-5.1,0.1-35.4,19.5-29.2c19.4,6.1,19-8.8,38.1-3.6"/>
<path fill="none" stroke="#697C60" stroke-miterlimit="10" d="M240.9,460c15.9-6.6,13.3-32.2,1.3-27.5c-12.4,4.8-2.8,11.6,2,9.9
	c14.7-5.1-0.1-35.4-19.5-29.2c-19.4,6.1-19-8.8-38.1-3.6"/>
<path fill="none" stroke="#697C60" stroke-miterlimit="10" d="M310.7,284.9c32.2-2.6,36.7,13.8,53.8,11.8
	c15.5-1.8,15.7-12.2,8.9-11.8c-11.2,0.7-18,19,12.5,14.4c30.5-4.6,28.7-14.2,43.6-15.8c11.6-1.2,12.2,7.9,7.8,8.4"/>
<path fill="none" stroke="#697C60" stroke-miterlimit="10" d="M449.5,281.4c20.7-2.7,21.1,14.9,13.3,15.9c-7.6,0.9-8-8.2,1.2-9.4
	c9.3-1.2,11.3,10.3,8.6,10.9"/>
<path fill="none" stroke="#697C60" stroke-miterlimit="10" d="M461.5,246c20.2-0.3,21.5,16.3,14.7,16.9c-6.8,0.6-7.8-11.9,1.6-12.3
	c10.7-0.4,12.9,7.6,15.7,7.3"/>
<path fill="none" stroke="#697C60" stroke-miterlimit="10" d="M434.1,263c3.1,0,3.4,4.2,6.8,3.9c11.3-0.8-2.1-16.6-2.1-27.7
	c0-14.7,20.3-29.7,40.6-27.5c14,1.5,17.9,25.1,2.4,24.9c-12-0.1-10.3-16-1.5-15.5"/>
<path fill="none" stroke="#697C60" stroke-miterlimit="10" d="M391.6,163.5c7.4,1.8,9.5,18.1-5.8,15.3
	c-12.4-2.2-18.6-33.1,11.5-25.9c29.8,7.2,19.3,35.5,5.4,49.2c-17.4,17.3,0,45.1,14.7,45.1"/>
<path fill="none" stroke="#697C60" stroke-miterlimit="10" d="M428.1,201.3c25.6,3.2,37-17.7,23.5-20.3c-10.9-2.1-14.2,7.8-7.9,8.8
	c12.8,2,19.2-19.4,9.4-21.5c-4.3-0.9-4.8,1.7-8.2,0.9"/>
<path fill="none" stroke="#697C60" stroke-miterlimit="10" d="M195.4,284.9c-32.2-2.6-36.7,13.8-53.8,11.8
	c-15.5-1.8-15.7-12.2-8.9-11.8c11.2,0.7,18,19-12.5,14.4s-28.7-14.2-43.6-15.8c-11.6-1.2-12.2,7.9-7.8,8.4"/>
<path fill="none" stroke="#697C60" stroke-miterlimit="10" d="M56.8,281.4c-20.7-2.7-21.1,14.9-13.3,15.9c7.6,0.9,8-8.2-1.2-9.4
	c-9.3-1.2-11.3,10.3-8.6,10.9"/>
<path fill="none" stroke="#697C60" stroke-miterlimit="10" d="M44.7,246c-20.2-0.3-21.5,16.3-14.7,16.9c6.8,0.6,7.8-11.9-1.6-12.3
	c-10.7-0.4-12.9,7.6-15.7,7.3"/>
<path fill="none" stroke="#697C60" stroke-miterlimit="10" d="M72.1,263c-3.1,0-3.4,4.2-6.8,3.9c-11.3-0.8,2.1-16.6,2.1-27.7
	c0-14.7-20.3-29.7-40.6-27.5c-14,1.5-17.9,25.1-2.4,24.9c12-0.1,10.3-16,1.5-15.5"/>
<path fill="none" stroke="#697C60" stroke-miterlimit="10" d="M114.5,163.5c-7.4,1.8-9.5,18.1,5.8,15.3
	c12.4-2.2,18.6-33.1-11.5-25.9c-29.8,7.2-19.3,35.5-5.4,49.2c17.4,17.3,0,45.1-14.7,45.1"/>
<path fill="none" stroke="#697C60" stroke-miterlimit="10" d="M78,201.3c-25.6,3.2-37-17.7-23.5-20.3c10.9-2.1,14.2,7.8,7.9,8.8
	c-12.8,2-19.2-19.4-9.4-21.5c4.3-0.9,4.8,1.7,8.2,0.9"/>
<path fill="none" stroke="#697C60" stroke-miterlimit="10" d="M506.5,185c-2.4-0.4-3.1,3.2-7.9,1.9c-4.8-1.3-26.5-13.1-15.8-42.7
	s-3-42.2-14.2-47.9c-16.3-8.4-38.3,10.3-24.7,15.4c16,6,15.4-29.7-4.7-39.1c-18.5-8.6-50.8,21.5-33.4,28
	c17.4,6.5,19.1-27.2,0.6-35.8c-25.8-12-43.8,17.9-32.8,22.4c12.3,5.2,13.7-20.4-1.4-25C352.6,56.3,341.4,73,350.9,76
	s12.4-6.7,0.5-12c-9.8-4.4-7.3,0.9-21.7-6"/>
<path fill="none" stroke="#697C60" stroke-miterlimit="10" d="M1.5,185c2.4-0.4,3.1,3.2,7.9,1.9c4.8-1.3,26.5-13.1,15.8-42.7
	s3-42.2,14.2-47.9c16.3-8.4,38.3,10.3,24.7,15.4c-16,6-15.4-29.7,4.7-39.1c18.5-8.6,50.8,21.5,33.4,28c-17.4,6.5-19.1-27.2-0.6-35.8
	c25.8-12,43.8,17.9,32.8,22.4c-12.3,5.2-13.7-20.4,1.4-25c19.6-5.9,30.8,10.8,21.3,13.8s-12.4-6.7-0.5-12c9.8-4.4,7.3,0.9,21.7-6"/>
<path fill="none" stroke="#697C60" stroke-miterlimit="10" d="M176.3,149.1c-3.9,0.8-3.1,1.8-6.5,2.5c-24.5,4.7-22-49.9,10.1-60.8
	c26-8.8,49.2,16,34.6,20.2c-15,4.3-9.8-42.7,16.9-52.6c14.2-5.3,12.2,2.2,23.2-0.8h0.2c10.9,3,8.9-4.5,23.2,0.8
	c26.8,9.9,31.9,56.9,16.9,52.6c-14.6-4.1,8.6-29,34.6-20.2c32.1,10.9,34.6,65.5,10.1,60.8c-3.4-0.7-2.6-1.7-6.5-2.5"/>
<path fill="none" stroke="#697C60" stroke-miterlimit="10" d="M270.1,87.6c3.6,1.1,3.3-2.8,0-3.7c-4.3-1.2-8.8,6.9,0,9.7
	c8.6,2.7,13.6-13.5,0-17.3c-7.4-2-9.3,3.8-15.5,2.5c-5.3-1.1-5-7,0-8.8c4.8,1.4,5.4,7.5,0,8.8c-5.1,1.3-8.1-4.3-13.9-2.5
	c-13.9,4.2-8.6,19.8,0,17.3c9.5-2.8,4.5-11.1,0-9.7c-3.6,1.1-2.9,4.7,0,3.7"/>
<path fill="none" stroke="#697C60" stroke-miterlimit="10" d="M121.5,270.4c3.1,0.3,3.3,3.6-0.4,3.3c-8-0.6-1.1-18.5,59-16.5
	c80.7,2.7,64.3,32,49.4,30.7c-11.6-1,7.9-27.5,25.1-26.9h0.4c17.1-0.6,36.6,25.9,25.1,26.9c-14.9,1.3-31.3-28,49.4-30.7
	c60.1-2,67,15.8,59,16.5c-3.8,0.3-3.5-3-0.4-3.3"/>
<path fill="none" stroke="#697C60" stroke-miterlimit="10" d="M395.1,79.9c-1.6-0.8-1-5.9,0-7c2.3-2.3,4.6,0.2,3.7,3
	C398.2,78.2,396.7,80.7,395.1,79.9z"/>
<path fill="none" stroke="#697C60" stroke-miterlimit="10" d="M464.1,109.1c-2.9,1-6.1,7.4,0,5C470.3,111.7,467.5,107.9,464.1,109.1
	z"/>
<path fill="none" stroke="#697C60" stroke-miterlimit="10" d="M468.5,113.6c0.7,3,6.8,6.8,5,0.5
	C471.7,107.7,467.7,110.1,468.5,113.6z"/>
<path fill="none" stroke="#697C60" stroke-miterlimit="10" d="M419.3,140.9c-0.6-1.5-1.4-3.2-0.6-4.6s3.1-1.7,4.3-0.5
	c1.2,1.2,1,3.3-0.3,4.3c1.3-0.4,5,0.3,5.3,1.4c0.2,0.6,0,1.4-0.4,1.9c-0.5,0.5-1.1,0.8-1.8,1c-0.9,0.3-1.8,0.4-2.7,0.4
	c0.2,1.2-0.5,2.4-1.6,3c-1.1,0.5-2.5,0.3-3.4-0.5c-0.5-0.5-0.9-1.2-0.8-1.9c0-0.7,0.5-1.4,1.2-1.7c-1,0-2,0-2.8-0.4
	c-0.9-0.4-1.6-1.3-1.4-2.2c0.2-0.8,1-1.5,1.9-1.5C417,139.6,419.3,140.9,419.3,140.9z"/>
<path fill="none" stroke="#697C60" stroke-miterlimit="10" d="M439,132.7c0.8-2.2,1.9-4.7,0.9-6.7c-1.1-2.1-4.2-2.4-5.8-0.8
	c-1.6,1.7-1.3,4.8,0.4,6.3c-1.8-0.6-6.9,0.5-7.3,2.1c-0.2,0.9,0,2,0.6,2.7s1.5,1.2,2.4,1.5c1.2,0.4,2.5,0.6,3.7,0.5
	c-0.2,1.7,0.7,3.5,2.2,4.3s3.5,0.5,4.7-0.7c0.7-0.7,1.2-1.7,1.1-2.7s-0.7-2-1.6-2.4c1.3,0,2.7,0,3.8-0.6c1.2-0.6,2.1-1.9,1.9-3.2
	c-0.2-1.2-1.4-2.1-2.6-2.2C442.3,130.7,439,132.7,439,132.7z"/>
<path fill="none" stroke="#697C60" stroke-miterlimit="10" d="M450.3,126.9c-0.6-1.5-1.4-3.2-0.6-4.6s3.1-1.7,4.3-0.5
	c1.2,1.2,1,3.3-0.3,4.3c1.3-0.4,5,0.3,5.3,1.4c0.2,0.6,0,1.4-0.4,1.9c-0.5,0.5-1.1,0.8-1.8,1c-0.9,0.3-1.8,0.4-2.7,0.4
	c0.2,1.2-0.5,2.4-1.6,3c-1.1,0.5-2.5,0.3-3.4-0.5c-0.5-0.5-0.9-1.2-0.8-1.9c0-0.7,0.5-1.4,1.2-1.7c-1,0-2,0-2.8-0.4
	c-0.9-0.4-1.6-1.3-1.4-2.2c0.2-0.8,1-1.5,1.9-1.5C448,125.6,450.3,126.9,450.3,126.9z"/>
<path fill="none" stroke="#697C60" stroke-miterlimit="10" d="M394,112.7c0.8-2.2,1.9-4.7,0.9-6.7c-1.1-2.1-4.2-2.4-5.8-0.8
	c-1.6,1.7-1.3,4.8,0.4,6.3c-1.8-0.6-6.9,0.5-7.3,2.1c-0.2,0.9,0,2,0.6,2.7s1.5,1.2,2.4,1.5c1.2,0.4,2.5,0.6,3.7,0.5
	c-0.2,1.7,0.7,3.5,2.2,4.3s3.5,0.5,4.7-0.7c0.7-0.7,1.2-1.7,1.1-2.7c-0.1-1-0.7-2-1.6-2.4c1.3,0,2.7,0,3.8-0.6
	c1.2-0.6,2.1-1.9,1.9-3.2c-0.2-1.2-1.4-2.1-2.6-2.2C397.3,110.7,394,112.7,394,112.7z"/>
<path fill="none" stroke="#697C60" stroke-miterlimit="10" d="M434.7,88.9c2.3-0.8,1.5-5.9-0.1-6.9c-3.2-2.3-6.5,0.2-5.3,3
	C430.5,87.3,432.6,89.7,434.7,88.9z"/>
<path fill="none" stroke="#697C60" stroke-miterlimit="10" d="M466.1,129.2c-3.3-1.2-10.7,11.3-10.7,19.9"/>
<path fill="none" stroke="#697C60" stroke-miterlimit="10" d="M446.5,143.1c4.3,2,9.5,3.9,9.5,11.8"/>
<path fill="none" stroke="#697C60" stroke-miterlimit="10" d="M387.8,140.6c0-10.4,12.1-23.3,22.8-19.6"/>
<path fill="none" stroke="#697C60" stroke-miterlimit="10" d="M367.6,113.8c0-5.1,2.4-4.7,5.8-3.7c3.4,1,9.3,14,9.3,27.3"/>
<path fill="none" stroke="#697C60" stroke-miterlimit="10" d="M294.4,16.1c-4.8-2-18,4.9-23.7,10.2c-6.9,6.4-10.3,13.9-14,18.8
	c3.3-0.2,11.9-5.2,19.7-12.3C282.1,27.4,302,19.4,294.4,16.1z M254.5,2.1c-8.3,0-4.9,26.8,0,40.9C258.7,28.8,261.9,2.1,254.5,2.1z"
	/>
<path fill="none" stroke="#697C60" stroke-miterlimit="10" d="M213.9,16.1c4.8-2,18,4.9,23.7,10.2c6.9,6.4,10.3,13.9,14,18.8
	c-3.3-0.2-11.9-5.2-19.7-12.3C226.1,27.4,206.2,19.4,213.9,16.1z"/>
<path fill="none" stroke="#697C60" stroke-miterlimit="10" d="M72.3,91c-2.3-1-1.4-7.1,0.1-8.5c3.2-2.8,6.4,0.3,5.2,3.6
	C76.5,88.9,74.4,91.9,72.3,91z"/>
<path fill="none" stroke="#697C60" stroke-miterlimit="10" d="M125.8,109.9c0.6-1.5,1.4-3.2,0.6-4.6c-0.8-1.4-3.1-1.7-4.3-0.5
	c-1.2,1.1-1,3.3,0.3,4.3c-1.3-0.4-5,0.3-5.3,1.4c-0.2,0.6,0,1.4,0.4,1.9c0.5,0.5,1.1,0.8,1.8,1c0.9,0.3,1.8,0.4,2.7,0.4
	c-0.2,1.2,0.5,2.4,1.6,3c1.1,0.5,2.5,0.3,3.4-0.5c0.5-0.5,0.9-1.2,0.8-1.9c0-0.7-0.5-1.4-1.2-1.6c1,0,2,0,2.8-0.4
	c0.9-0.4,1.6-1.3,1.4-2.2c-0.2-0.8-1-1.5-1.9-1.5C128.1,108.6,125.8,109.9,125.8,109.9z"/>
<path fill="none" stroke="#697C60" stroke-miterlimit="10" d="M67.1,128.6c-0.8-2.2-1.9-4.7-0.9-6.7c1.1-2.1,4.2-2.4,5.8-0.8
	c1.6,1.7,1.3,4.7-0.4,6.3c1.8-0.6,6.8,0.5,7.2,2.1c0.2,0.9,0,2-0.6,2.7s-1.5,1.2-2.4,1.5c-1.2,0.4-2.5,0.6-3.7,0.5
	c0.2,1.7-0.7,3.5-2.2,4.3s-3.5,0.5-4.7-0.7c-0.7-0.7-1.2-1.7-1.1-2.7c0.1-1,0.7-2,1.6-2.4c-1.3,0-2.7,0-3.8-0.6
	c-1.2-0.6-2.1-1.9-1.9-3.2c0.2-1.2,1.4-2.1,2.6-2.2C63.8,126.7,67.1,128.6,67.1,128.6z"/>
<path fill="none" stroke="#697C60" stroke-miterlimit="10" d="M50.8,139.8c0.6-1.5,1.4-3.2,0.6-4.6c-0.8-1.4-3.1-1.7-4.3-0.5
	c-1.2,1.1-1,3.3,0.3,4.3c-1.3-0.4-5,0.3-5.3,1.4c-0.2,0.6,0,1.4,0.4,1.9c0.5,0.5,1.1,0.8,1.8,1c0.9,0.3,1.8,0.4,2.7,0.4
	c-0.2,1.2,0.5,2.4,1.6,3c1.1,0.5,2.5,0.3,3.4-0.5c0.5-0.5,0.9-1.2,0.8-1.9c0-0.7-0.5-1.4-1.2-1.6c1,0,2,0,2.8-0.4
	c0.9-0.4,1.6-1.3,1.4-2.2c-0.2-0.8-1-1.5-1.9-1.5C53.2,138.5,50.8,139.8,50.8,139.8z"/>
<path fill="none" stroke="#697C60" stroke-miterlimit="10" d="M76.7,146.1c-1-2.3-2.3-4.9-1-7.1s5.1-2.6,7-0.8
	c1.9,1.8,1.6,5-0.5,6.6c2.2-0.7,8.3,0.5,8.8,2.2c0.3,1,0,2.1-0.7,2.9s-1.8,1.2-2.9,1.6c-1.4,0.4-3,0.6-4.5,0.5
	c0.3,1.8-0.9,3.7-2.7,4.6c-1.8,0.8-4.2,0.5-5.7-0.8c-0.9-0.7-1.4-1.8-1.4-2.9c0.1-1.1,0.8-2.1,1.9-2.5c-1.6,0-3.2,0-4.6-0.6
	c-1.4-0.6-2.6-2-2.3-3.4c0.2-1.3,1.7-2.3,3.2-2.3C72.8,144,76.7,146.1,76.7,146.1z"/>
<path fill="none" stroke="#697C60" stroke-miterlimit="10" d="M109.1,78.9c-1.6-0.8-1-5.9,0-7c2.3-2.3,4.6,0.2,3.7,3
	C112.2,77.2,110.7,79.7,109.1,78.9z"/>
<path fill="none" stroke="#697C60" stroke-miterlimit="10" d="M40.7,118.9c2.3-0.8,1.5-5.9-0.1-6.9c-3.2-2.3-6.5,0.2-5.3,3
	C36.4,117.3,38.6,119.7,40.7,118.9z"/>
<path fill="none" stroke="#697C60" stroke-miterlimit="10" d="M127.4,134.8c0-6.4,4-20.7,8.7-20.7"/>
<path fill="none" stroke="#697C60" stroke-miterlimit="10" d="M97.7,117.8c9.5-2.8,24.3,8.8,24.3,18.3"/>
<path fill="none" stroke="#697C60" stroke-miterlimit="10" d="M59.8,159.1c0-20.1-5.3-31.6-8-30.6"/>
<path fill="none" stroke="#697C60" stroke-miterlimit="10" d="M63.9,158.6c0-6.2-0.4-14.2,1.7-14.8"/>
</svg>
